<?xml version="1.0" encoding="utf-8"?>
<!-- Generator: Adobe Illustrator 16.0.0, SVG Export Plug-In . SVG Version: 6.00 Build 0)  -->
<!DOCTYPE svg PUBLIC "-//W3C//DTD SVG 1.1//EN" "http://www.w3.org/Graphics/SVG/1.1/DTD/svg11.dtd">
<svg version="1.1" id="Layer_1" xmlns="http://www.w3.org/2000/svg" xmlns:xlink="http://www.w3.org/1999/xlink" x="0px" y="0px"
	 width="270px" height="270px" viewBox="0 0 270 270" enable-background="new 0 0 270 270" xml:space="preserve">
<g>
	<path fill="#37B34A" d="M83.56,154.068c0,0,25.739,20.87,29.913,48.695c4.174,27.827,0,43.826,0,43.826s9.043,6.262,26.434,6.262
		c17.392,0,27.826-6.956,27.826-6.956s-3.479-11.828-3.479-41.044c0-29.218,29.217-50.783,29.217-50.783l-12.868-10.783
		c0,0-19.826,18.673-28.869,34.207v-38.729h-25.739v40.696c-8-19.826-27.131-34.753-27.131-34.753L83.56,154.068z"/>
	<g>
		<g>
			<path fill="#31A444" d="M151.733,177.492v-38.729h-12.425l3.217,23.279c0.49,3.555,1.335,7.062,2.664,10.395
				C146.825,176.541,151.733,177.492,151.733,177.492z"/>
			<path fill="#31A444" d="M193.471,154.068l-12.868-10.783c0,0-2.316,2.188-5.692,5.642l6.136,5.142
				c0,0-29.218,21.565-29.218,50.783c0,10.226,0.427,18.321,0.979,24.524c1.026,11.487-7.128,21.897-18.596,23.118
				c-0.211,0.022-0.423,0.045-0.637,0.066c1.971,0.182,4.078,0.289,6.332,0.289c17.392,0,27.826-6.954,27.826-6.954
				s-3.477-11.828-3.477-41.044C164.256,175.634,193.471,154.068,193.471,154.068z"/>
		</g>
	</g>
	<path fill="#31A444" d="M98.863,144.707L98.863,144.707l-2.465,1.508l-4.849,2.966c5.123,4.802,15.472,11.396,21.992,20.975
		c3.011,4.423,7.317,7.802,12.452,9.305C117.994,159.636,98.866,144.711,98.863,144.707z"/>
	<g>
		<path fill="#00873E" d="M72.417,174.106c-24.6,2.712-40.241-15.723-37.265-36.036c-8.163-1.146-28.141-16.395-22.778-39.66
			c4.545-19.711,26.295-27.212,42.34-23.688c-2.005-15.729,6.87-32.263,21.087-39.283c14.216-7.022,32.737-4.02,44.009,7.132
			c10.036-16.628,31.092-25.792,50.1-21.799c19.01,3.992,34.604,20.85,37.103,40.112c12.761-9.833,33.483-6.708,42.779,6.452
			c9.293,13.158,5.311,33.732-8.222,42.473c11.765,6.434,18.592,20.827,16.13,34.008c-2.462,13.183-14.021,24.144-27.316,25.896
			c-13.294,1.754-25.728-2.996-31.522-15.093c-6.874,5.795-18.85,4.159-26.861,0.085s-13.168-13.187-12.535-22.154
			c-5.001,10.45-16.611,15.58-28.114,16.945c-11.216,1.331-17.436-3.362-27.458-13.685
			C102.008,159.59,93.455,171.786,72.417,174.106z"/>
	</g>
	<circle fill="#009345" cx="87.127" cy="64.33" r="12.886"/>
	<circle fill="#009345" cx="41.379" cy="108.257" r="12.886"/>
	<circle fill="#009345" cx="70.674" cy="144.707" r="12.886"/>
	<g>
		<g>
			<path fill="#007B38" d="M241.57,109.81c13.532-8.74,17.515-29.315,8.222-42.473c-9.294-13.16-30.019-16.285-42.779-6.452
				c-2.499-19.262-18.093-36.121-37.103-40.112c-19.008-3.993-40.064,5.17-50.1,21.799c-8.463-8.373-21.012-12.149-32.758-10.542
				c17.84,3.654,28.287,19.415,27.537,34.02c4.933-4.512,16.436-8.084,25.373-5.597c8.937,2.488,15.796,11.114,16.207,20.382
				c9.437-2.722,19.604-1.027,25.533,8.292c4.971,7.812,2.966,21.814-1.104,27.719c8.194,5.776,9.251,21.581,2.798,29.254
				c-4.035,4.797-8.523,6.637-13.17,7.521c0.585,0.373,1.154,0.77,1.773,1.087c8.012,4.076,19.988,5.71,26.861-0.085
				c5.795,12.095,18.229,16.847,31.522,15.093c13.295-1.753,24.854-12.714,27.316-25.896S253.335,116.243,241.57,109.81z"/>
		</g>
	</g>
</g>
</svg>
