<?xml version="1.0" encoding="utf-8"?>
<!-- Generator: Adobe Illustrator 16.0.0, SVG Export Plug-In . SVG Version: 6.00 Build 0)  -->
<!DOCTYPE svg PUBLIC "-//W3C//DTD SVG 1.1//EN" "http://www.w3.org/Graphics/SVG/1.1/DTD/svg11.dtd">
<svg version="1.1" id="Layer_1" xmlns="http://www.w3.org/2000/svg" xmlns:xlink="http://www.w3.org/1999/xlink" x="0px" y="0px"
	 width="270px" height="270px" viewBox="0 0 270 270" enable-background="new 0 0 270 270" xml:space="preserve">
<g>
	<g>
		<g>
			<g>
				<path fill="#00873E" d="M57.547,24.469c0,0-4.733,22.747,55.174,90.125c1.99,2.237,7.186,6.3,8.869,7.722
					c0.816,0.688,5.445-5.278,4.718-6.046c-4.012-4.24-42.415-42.642-54.734-64.277C61.241,33.836,57.547,24.469,57.547,24.469z"/>
			</g>
		</g>
		<g>
			<g>
				<path fill="#00873E" d="M73.872,56.152c-14.375-7.583-29.452-6.99-29.452-6.99s7.758,0.545,21.804,5.603
					c2.991,1.078,5.562,3.368,8.199,4.818C74.131,58.697,74.242,56.982,73.872,56.152z"/>
			</g>
		</g>
		<g>
			<g>
				<path fill="#00873E" d="M74.064,48.918c0.091,3.866,0.763,8.445,2.806,12.76c0.726,0.188,4.291,6.48,5.078,6.602
					C81,66.4,77.314,58.088,76.771,55.888c-0.71-2.873-1.163-5.393-1.454-7.558C74.906,48.56,74.49,48.752,74.064,48.918z"/>
			</g>
		</g>
		<path fill="#31A444" d="M57.244,38.14c-2.29,0.776-2.283,2.889-2.083,4.063c-0.884-3.16-3.809-10.065-5.727-7.318
			c-2.108,3.019,3.051,8.632,3.051,8.632c-2.676-3.181-6.826-3.121-7.801-2.277c-0.978,0.844,0.585,2.25,4.727,4.325
			c4.143,2.078,4.434,3.871,4.434,3.871s-3.772,0.089-7.523-2.623c-3.749-2.714-8.091-7.996-9.853-5.88
			c-1.765,2.116,2.736,6.387,2.736,6.387c-4.353-1.171-13.678-2.933-12.878,1.188c0.679,3.503,9.68,2.817,12.369,2.535
			c-1.33,0.221-4.181,0.997-6.658,3.726c-3.356,3.698,0.918,5.617,4.361,1.65c3.444-3.965,14.992-3.888,14.992-3.888
			s-1.408,1.854-3.653,2.415c-2.245,0.562-8.49-0.47-8.069,2.631c0.42,3.102,7.059,0.38,7.059,0.38s-8.048,4.574-6.013,7.212
			c1.412,1.834,5.099-2.537,7.222-5.381c-2.241,4.168,0.782,6.296,2.092,1.91c0.441-1.472,1.16-2.829,1.961-4.017
			c1.934-2.866,5.131-4.957,8.368-5.584l0,0c0,0-1.99-2.692-1.966-6.163C58.419,42.462,60.48,37.042,57.244,38.14z"/>
		<path fill="#31A444" d="M60.911,44.791c0.457-0.981,3.792-1.297,4.842-0.763c-2.73-1.772-6.77-5.98-3.626-7.087
			c3.453-1.216,7.286,5.46,7.286,5.46c-2.244-3.54-1.006-7.607,0.068-8.328c1.075-0.722,1.96,1.215,2.74,5.887
			c0.78,4.672,2.766,5.758,2.766,5.758s0.784-3.978-0.707-8.444c-1.495-4.466-5.25-10.244-2.748-11.377
			c2.503-1.134,5.253,4.515,5.253,4.515c0.133-4.62,1.126-14.304,4.79-12.342c3.116,1.665-0.095,10.333-1.129,12.9
			c0.588-1.247,2.133-3.833,5.416-5.494c4.451-2.252,5.042,2.504,0.317,4.765c-4.726,2.259-7.942,13.654-7.942,13.654
			s2.151-0.859,3.322-2.909c1.169-2.05,1.974-8.493,4.784-7.196c2.809,1.298-1.651,7.062-1.651,7.062s6.611-6.622,8.526-3.868
			c1.332,1.913-3.851,4.299-7.142,5.579c4.576-1.021,5.726,2.562,1.208,2.604c-1.515,0.015-3.001,0.337-4.352,0.786
			c-3.259,1.088-6.398,3.91-7.911,6.92l0,0c0,0-1.723-2.997-5.009-3.962C66.724,47.945,59.505,47.817,60.911,44.791z"/>
		<path fill="#31A444" d="M72.188,21.631c-1.598-1.149-3.522,0.725-4.515,1.921c2.538-3.499,7.698-11.94,4.446-11.052
			c-3.573,0.978-6.687,10.069-6.687,10.069c1.861-4.954,0.193-8.227-0.955-8.266c-1.149-0.038-1.825,2.455-2.105,7.608
			c-0.282,5.156-2.145,7.498-2.145,7.498s-1.21-3.471-0.192-8.872c1.014-5.401,4.144-13.543,1.528-13.088
			c-2.617,0.453-4.759,7.831-4.759,7.831c-0.626-4.521-2.644-13.551-6.091-9.27c-2.929,3.637,1.193,10.246,2.499,12.15
			c-0.72-0.869-2.535-2.469-5.986-2.046c-4.678,0.577-4.764,5.697,0.189,4.955c4.955-0.744,9.375,8.583,9.375,8.583
			s-2.237,0.507-3.622-0.796c-1.385-1.303-2.872-7.219-5.537-4.142c-2.666,3.076,2.397,5.996,2.397,5.996s-7.3-2.412-8.915,1.549
			c-1.124,2.752,4.296,1.847,7.715,1.035c-4.671,1.885-5.437,6.188-0.927,3.366c1.514-0.947,3.03-1.569,4.423-1.977
			c3.367-0.982,6.517-0.267,8.347,1.774l0,0c0,0,1.681-3.973,4.856-7.02C68.703,26.392,74.451,23.255,72.188,21.631z"/>
	</g>
	<g>
		<g>
			<g>
				<path fill="#00873E" d="M44.093,84.5c0,0,23.088-1.573,77.441,34.34c2.254,1.491,2.162,1.501,3.616,2.788
					c0.704,0.627-5.036,6.698-5.812,6.148c-4.279-3.023-25.531-19.432-49.736-32.034C52.521,86.848,44.093,84.5,44.093,84.5z"/>
			</g>
		</g>
		<g>
			<g>
				<path fill="#00873E" d="M80.773,98.152c-9.841-9.767-10.881-22.703-10.881-22.703s1.841,5.87,9.157,15.811
					c1.558,2.114,5.559,6.24,7.419,8.022C85.55,99.208,81.646,98.296,80.773,98.152z"/>
			</g>
		</g>
		<g>
			<g>
				<path fill="#00873E" d="M71.571,103.837c3.177-1.673,9.357-3.012,14.184-2.784c0.391,0.461,6.767,2.355,7.109,2.882
					c-2.119-0.139-13.537-1.263-20.828,1.812C72.141,105.392,71.53,104.185,71.571,103.837z"/>
			</g>
		</g>
		<path fill="#31A444" d="M60.802,86.8c0.473-1.899,2.527-2.154,3.694-2.138c-3.179-0.308-10.25-1.759-7.814-3.608
			c2.675-2.03,8.762,1.338,8.762,1.338c-3.42-1.716-3.872-4.99-3.173-5.861c0.699-0.873,2.257,0.183,4.785,3.19
			c2.526,3.006,4.305,3.016,4.305,3.016s-0.378-2.983-3.474-5.601c-3.099-2.618-8.766-5.385-6.927-7.034
			c1.839-1.649,6.542,1.37,6.542,1.37c-1.672-3.283-4.531-10.408-0.428-10.285c3.484,0.105,3.928,7.274,3.981,9.426
			c0.051-1.072,0.456-3.414,2.802-5.699c3.181-3.099,5.569,0.032,2.14,3.23c-3.428,3.198-1.932,12.281-1.932,12.281
			s1.626-1.336,1.896-3.173c0.27-1.838-1.503-6.625,1.564-6.676c3.066-0.052,1.238,5.511,1.238,5.511s3.455-6.902,6.27-5.624
			c1.954,0.887-1.838,4.327-4.34,6.347c3.772-2.278,6.212-0.157,2.112,1.414c-1.375,0.526-2.604,1.262-3.66,2.038
			c-2.55,1.875-4.186,4.649-4.396,7.275l0,0c0,0-2.862-1.236-6.233-0.789C65.148,87.193,60.134,89.483,60.802,86.8z"/>
		<path fill="#31A444" d="M63.771,95.662c-0.835,0.602-0.198,3.062,0.625,3.658c-2.52-1.438-7.807-3.112-8.003-0.563
			c-0.214,2.799,7.445,3.624,7.445,3.624c-4.122-0.586-7.774,1.451-8.178,2.419c-0.403,0.968,1.753,1.047,6.571,0.274
			s6.453,0.326,6.453,0.326s-3.693,1.692-8.51,1.898c-4.82,0.207-11.57-0.819-11.976,1.281c-0.405,2.1,5.935,2.45,5.935,2.45
			c-4.508,1.407-13.753,4.866-10.782,6.914c2.524,1.737,10.139-3.006,12.373-4.472c-1.061,0.771-3.167,2.603-3.867,5.41
			c-0.952,3.804,3.897,2.873,4.778-1.128c0.881-4.004,11.176-9.528,11.176-9.528s-0.233,1.774-1.917,3.188
			c-1.686,1.416-7.794,3.819-5.721,5.445c2.076,1.63,6.479-3.18,6.479-3.18s-4.637,6.583-1.383,7.158
			c2.261,0.402,3.134-3.958,3.458-6.658c0.297,3.542,4.151,3.338,2.908,0.119c-0.417-1.082-0.524-2.228-0.464-3.316
			c0.143-2.627,2.028-5.659,4.56-7.59l0,0c0,0-3.439-0.372-5.322-2.433C68.527,98.896,66.352,93.8,63.771,95.662z"/>
		<path fill="#31A444" d="M42.178,96.538c-1.187-1.233,0.499-2.898,1.591-3.768c-3.21,2.25-11.009,6.901-10.338,4.212
			c0.741-2.955,9.272-5.978,9.272-5.978c-4.641,1.782-7.865,0.608-7.962-0.324c-0.1-0.931,2.25-1.615,7.168-2.126
			c4.918-0.51,7.059-2.151,7.059-2.151s-3.387-0.791-8.504,0.33c-5.113,1.12-12.74,4.104-12.446,1.958
			c0.291-2.148,7.237-4.292,7.237-4.292c-4.363-0.259-13.117-1.406-9.209-4.438c3.322-2.577,9.874,0.407,11.77,1.363
			c-0.874-0.536-2.504-1.923-2.286-4.747c0.296-3.83,5.191-4.18,4.752-0.115c-0.44,4.062,8.729,7.139,8.729,7.139
			s0.364-1.843-0.959-2.896c-1.323-1.054-7.067-1.937-4.269-4.269c2.798-2.331,5.87,1.619,5.87,1.619s-2.709-5.794,0.997-7.324
			c2.573-1.062,2,3.389,1.413,6.207c1.549-3.897,5.625-4.752,3.171-0.939c-0.826,1.282-1.337,2.547-1.652,3.701
			c-0.755,2.789,0.102,5.305,2.156,6.678l0,0c0,0-3.711,1.582-6.454,4.327C46.544,93.449,43.857,98.287,42.178,96.538z"/>
	</g>
	<g>
		<g>
			<g>
				<path fill="#00873E" d="M110.745,43.292c0,0-7.935,19.607,10.378,70.656c0.762,2.117,2.456,1.458,3.22,2.876
					c0.371,0.686,4.49-1.842,4.197-2.579c-1.606-4.049-11.649-27.838-14.417-47.084C111.801,51.013,110.745,43.292,110.745,43.292z"
					/>
			</g>
		</g>
		<g>
			<g>
				<path fill="#00873E" d="M114.269,76.067c-6.041-9.762-16.615-12.676-16.615-12.676s4.505,2.467,11.23,10.146
					c1.434,1.634,4.018,5.626,5.105,7.463C114.126,80.222,114.201,76.819,114.269,76.067z"/>
			</g>
		</g>
		<g>
			<g>
				<path fill="#00873E" d="M120.987,69.288c-2.077,2.388-4.517,7.333-5.362,11.395c0.299,0.401,0.515,6.022,0.878,6.392
					c0.337-1.79,1.851-11.499,5.982-17.098C122.165,70.009,121.287,69.306,120.987,69.288z"/>
			</g>
		</g>
		<path fill="#31A444" d="M109.077,57.604c-1.685,0.093-2.337,1.768-2.574,2.742c0.423-2.702,0.73-8.831-1.337-7.092
			c-2.27,1.911-0.762,7.524-0.762,7.524c-0.699-3.126-3.333-4.022-4.212-3.577c-0.878,0.447-0.333,1.914,1.636,4.499
			c1.969,2.585,1.591,4.072,1.591,4.072s-2.407-0.788-3.926-3.79c-1.522-2.998-2.616-8.165-4.387-6.891
			c-1.77,1.272-0.262,5.676-0.262,5.676c-2.38-1.917-7.713-5.432-8.489-1.989c-0.662,2.928,5.227,4.431,7.012,4.818
			c-0.907-0.128-2.949-0.161-5.357,1.435c-3.269,2.166-1.168,4.655,2.235,2.298c3.406-2.356,10.665,0.333,10.665,0.333
			s-1.466,1.147-3.055,1.08c-1.589-0.066-5.208-2.303-5.909,0.249c-0.701,2.551,4.333,1.906,4.333,1.906s-6.499,1.79-6.037,4.341
			c0.322,1.772,4.005-0.849,6.23-2.618c-2.71,2.79-1.465,5.162,0.724,1.989c0.738-1.064,1.613-1.975,2.488-2.733
			c2.113-1.831,4.777-2.758,7.014-2.518l0,0c0,0-0.417-2.584,0.679-5.326C108.476,61.292,111.463,57.468,109.077,57.604z"/>
		<path fill="#31A444" d="M115.837,61.483c0.683-0.604,2.599,0.32,2.92,1.102c-0.661-2.33-0.923-7.009,1.246-6.77
			c2.383,0.266,1.428,6.789,1.428,6.789c0.394-3.533,2.877-6.26,3.771-6.441c0.896-0.186,0.498,1.627-1.181,5.526
			c-1.679,3.901-1.11,5.438-1.11,5.438s2.203-2.814,3.407-6.802c1.208-3.989,1.801-9.787,3.64-9.791
			c1.84-0.007,0.773,5.339,0.773,5.339c2.142-3.538,7.011-10.708,8.084-7.906c0.909,2.383-4.686,7.99-6.386,9.622
			c0.872-0.762,2.855-2.23,5.344-2.372c3.379-0.192,1.562,3.708-1.968,3.811c-3.526,0.101-10.347,7.819-10.347,7.819
			s1.529,0.085,3.072-1.096c1.542-1.181,4.858-5.901,5.773-3.912c0.912,1.989-4.044,4.903-4.044,4.903s6.485-2.83,6.268-0.019
			c-0.149,1.95-3.975,1.988-6.299,1.831c2.892,0.81,1.897,3.993-0.526,2.446c-0.812-0.519-1.747-0.79-2.668-0.912
			c-2.222-0.296-5.159,0.798-7.314,2.603l0,0c0,0,0.428-2.93-0.889-4.826C117.519,65.965,113.731,63.342,115.837,61.483z"/>
		<path fill="#31A444" d="M121.205,43.6c-0.777-1.187-2.527-0.042-3.489,0.733c2.568-2.325,8.125-8.099,5.736-7.963
			c-2.626,0.151-6.98,6.794-6.98,6.794c2.482-3.592,2.192-6.467,1.438-6.698c-0.755-0.229-1.829,1.622-3.314,5.647
			c-1.481,4.023-3.311,5.552-3.311,5.552s0.069-2.954,2.102-7.047c2.031-4.091,6.159-9.981,4.301-10.077
			c-1.854-0.097-5.134,5.362-5.134,5.362c0.719-3.684,1.642-11.171-1.728-8.39c-2.864,2.363-1.779,8.307-1.387,10.039
			c-0.258-0.814-1.067-2.396-3.472-2.659c-3.259-0.36-4.603,3.673-1.118,3.948c3.487,0.276,4.088,8.415,4.088,8.415
			s-1.617,0.012-2.209-1.261c-0.598-1.269-0.102-6.205-2.647-4.238c-2.549,1.967,0.091,5.155,0.091,5.155s-4.257-3.176-6.326-0.328
			c-1.438,1.98,2.399,2.209,4.878,2.163c-3.586,0.677-5.174,3.943-1.465,2.498c1.244-0.482,2.412-0.712,3.442-0.791
			c2.488-0.189,4.406,0.924,5.111,2.856l0,0c0,0,2.117-2.847,4.994-4.7C117.688,46.756,122.302,45.278,121.205,43.6z"/>
	</g>
	<g>
		<g>
			<path fill="#F27321" d="M114.016,166.298c13.338,19.393,30.722,34.338,49.112,49.076c18.003,14.43,52.504,36.96,59.576,31.167
				c7.447-6.104-6.454-52.926-9.14-58.841c-9.294-20.473-24.447-50.567-41.123-69.26c-11.377-12.756-29.487-20.509-51.593-2.7
				C102.066,130.871,103.738,151.351,114.016,166.298z"/>
			<path fill="#DC691E" d="M120.848,115.739c-5.752,4.635-9.569,9.772-11.825,15.098c23.931-15.367,33.763-12.185,60.788,17.587
				c16.472,18.146,61.068,97.669,40.789,96.849c5.64,2.226,10.045,2.955,12.105,1.267c7.448-6.104-6.455-52.925-9.137-58.842
				c-9.298-20.471-24.449-50.567-41.126-69.259C161.063,105.684,142.956,97.929,120.848,115.739z"/>
		</g>
		<path fill="#F68F31" d="M123.082,137.928c-15.909,10.901-1.987,31.282,13.054,20.612
			C149.721,148.899,138.875,127.106,123.082,137.928z"/>
		<g>
			<path fill="#DC691E" d="M116.577,153.644c3.341-1.997,6.679-4.009,9.952-6.161c1.642-1.075,3.271-2.152,4.879-3.298
				c1.628-1.102,3.179-2.307,4.758-3.478c-6.926,3.342-13.748,6.571-20.615,9.762l-7.515,3.484c0.38,1.269,0.827,2.524,1.333,3.758
				C111.778,156.375,114.188,155.045,116.577,153.644z"/>
			<path fill="#C85F19" d="M169.106,130.076c2.366-2.423,4.619-4.936,6.862-7.478c-0.911-1.116-1.823-2.19-2.743-3.244
				c-0.279,0.385-0.558,0.769-0.843,1.152c-1.913,2.627-3.96,5.208-5.971,7.824c-4.048,5.221-8.243,10.426-12.156,15.838
				C159.399,139.642,164.369,134.981,169.106,130.076z"/>
			<path fill="#C85F19" d="M185.341,151.842c-4.326,5.579-8.857,11.102-13.161,16.83c5.594-4.749,10.895-9.764,15.979-15.005
				c1.738-1.827,3.441-3.692,5.12-5.58c-0.734-1.251-1.479-2.49-2.23-3.727C189.17,146.857,187.288,149.354,185.341,151.842z"/>
			<path fill="#DC691E" d="M124.969,180.006c3.033-1.579,6.069-3.138,9.055-4.854c2.993-1.69,5.96-3.465,8.875-5.34
				c1.46-0.931,2.901-1.895,4.332-2.895c1.446-0.965,2.811-2.042,4.213-3.071c-6.158,2.855-12.201,5.556-18.291,8.184
				c-3.043,1.284-6.068,2.633-9.113,3.87c-0.683,0.281-1.364,0.568-2.049,0.852c0.925,1.119,1.823,2.267,2.771,3.357
				C124.832,180.073,124.899,180.042,124.969,180.006z"/>
			<path fill="#C85F19" d="M202.863,175.882c-2.38,3.122-4.89,6.174-7.407,9.248c-2.551,3.061-5.143,6.101-7.806,9.162
				c3.271-2.464,6.433-5.118,9.448-7.897c3.051-2.759,5.926-5.682,8.739-8.655c0.675-0.739,1.339-1.483,2.009-2.23
				c-0.601-1.234-1.222-2.489-1.847-3.754C204.973,173.138,203.943,174.522,202.863,175.882z"/>
			<path fill="#DC691E" d="M152.542,198.86c3.133-1.842,6.232-3.729,9.202-5.844c3.015-2.061,5.869-4.313,8.647-6.631
				c-3.159,1.672-6.294,3.332-9.401,4.89c-3.121,1.572-6.249,3.045-9.373,4.448c-2.672,1.155-5.333,2.27-7.997,3.276
				c1.071,0.961,2.165,1.904,3.258,2.854C148.783,200.903,150.683,199.931,152.542,198.86z"/>
			<path fill="#DC691E" d="M173.643,221.732c2.08-1.437,4.107-2.946,6.12-4.474c2.015-1.501,3.956-3.183,5.898-4.771
				c1.907-1.629,3.729-3.329,5.561-5.042l-3.197,1.902c-1.054,0.643-2.1,1.328-3.161,1.933c-2.12,1.23-4.149,2.526-6.271,3.702
				c-2.083,1.235-4.172,2.428-6.274,3.563c-0.977,0.573-1.965,1.115-2.956,1.645c1.02,0.767,2.06,1.536,3.129,2.313
				C172.873,222.248,173.263,221.998,173.643,221.732z"/>
			<path fill="#DC691E" d="M200.395,237.951c-0.785,0.398-1.565,0.78-2.346,1.169c0.996,0.562,1.983,1.105,2.956,1.624
				c3.81-2.797,7.536-5.71,11.111-8.801L200.395,237.951z"/>
			<path fill="#C85F19" d="M211.533,210.549c-2.49,2.819-4.967,5.666-7.441,8.557c3.129-2.351,6.176-4.805,9.131-7.35
				c2.098-1.765,4.115-3.599,6.117-5.445c-0.321-1.227-0.647-2.432-0.971-3.592L211.533,210.549z"/>
		</g>
	</g>
</g>
</svg>
