<?xml version="1.0" encoding="utf-8"?>
<!-- Generator: Adobe Illustrator 16.0.0, SVG Export Plug-In . SVG Version: 6.00 Build 0)  -->
<!DOCTYPE svg PUBLIC "-//W3C//DTD SVG 1.1//EN" "http://www.w3.org/Graphics/SVG/1.1/DTD/svg11.dtd">
<svg version="1.1" id="Layer_1" xmlns="http://www.w3.org/2000/svg" xmlns:xlink="http://www.w3.org/1999/xlink" x="0px" y="0px"
	 width="270px" height="270px" viewBox="0 0 270 270" enable-background="new 0 0 270 270" xml:space="preserve">
<g>
	<g>
		<g>
			<g>
				<path fill="#00873E" d="M143.255,18.265c0,0-14.421,13.366-10.703,94.729c0.124,2.703,1.342,8.503,1.685,10.457
					c0.166,0.946,6.076-0.645,6.005-1.599c-0.387-5.256-5.18-54.035-2.028-76.252C140.859,26.958,143.255,18.265,143.255,18.265z"/>
			</g>
		</g>
		<g>
			<g>
				<path fill="#00873E" d="M137.563,49.831c-5.213-13.468-14.981-21.57-14.981-21.57s4.598,4.769,10.875,16.271
					c1.337,2.45,1.798,5.519,2.725,8.03C136.445,51.772,137.378,50.626,137.563,49.831z"/>
			</g>
		</g>
		<g>
			<g>
				<path fill="#00873E" d="M141.324,44.839c-1.889,2.778-3.772,6.386-4.659,10.584c0.361,0.542-0.568,6.993-0.134,7.524
					c0.351-1.862,2.22-9.806,2.984-11.664c1-2.427,1.985-4.46,2.891-6.151C142.034,45.061,141.675,44.962,141.324,44.839z"/>
			</g>
		</g>
		<path fill="#31A444" d="M136.183,27.734c-1.829-0.746-2.887,0.748-3.352,1.689c1.034-2.728,2.673-9.25,0.086-8.396
			c-2.843,0.938-2.429,7.811-2.429,7.811c-0.08-3.755-2.716-6.058-3.753-6.014c-1.038,0.043-0.765,1.916,0.792,5.721
			c1.557,3.806,0.837,5.235,0.837,5.235s-2.414-2.069-3.405-6.101c-0.989-4.032-1.057-10.209-3.229-9.714
			c-2.173,0.496-1.496,6.05-1.496,6.05c-2.144-3.285-7.115-9.796-8.686-6.438c-1.337,2.854,4.661,7.456,6.493,8.776
			c-0.946-0.596-3.128-1.66-6.057-1.134c-3.97,0.711-2.25,4.479,1.909,3.628c4.159-0.851,11.373,5.729,11.373,5.729
			s-1.817,0.511-3.51-0.361c-1.692-0.873-5.096-5.128-6.392-2.704c-1.297,2.424,4.242,4.257,4.242,4.257s-7.357-1.323-7.407,1.688
			c-0.036,2.091,4.48,1.092,7.245,0.286c-3.505,1.673-2.677,4.882,0.353,2.53c1.018-0.789,2.152-1.34,3.253-1.725
			c2.657-0.929,5.717-0.597,8.067,0.79l0,0c0,0,0.104-3.023,1.866-5.457C134.746,31.447,138.77,28.789,136.183,27.734z"/>
		<path fill="#31A444" d="M135.14,34.496c0.78-0.434,3.034,1.229,3.425,2.198c-0.824-2.792-1.243-8.042,1.288-7.046
			c2.781,1.094,1.828,7.968,1.828,7.968c0.373-3.765,3.198-5.933,4.235-5.835c1.039,0.099,0.619,1.964-1.242,5.7
			c-1.861,3.735-1.161,5.623-1.161,5.623s2.496-2.362,3.806-6.355c1.309-3.992,1.859-10.188,4-9.575
			c2.143,0.614,1.027,6.151,1.027,6.151c2.409-3.182,7.906-9.45,9.221-5.996c1.118,2.934-5.26,7.232-7.202,8.458
			c0.996-0.547,3.269-1.497,6.167-0.814c3.929,0.927,1.907,4.616-2.199,3.539c-4.105-1.077-11.86,5.141-11.86,5.141
			s1.783,0.61,3.551-0.174c1.766-0.785,5.514-4.873,6.626-2.371c1.112,2.502-4.591,4.046-4.591,4.046s7.486-0.934,7.302,2.09
			c-0.127,2.101-4.581,0.856-7.292-0.101c3.386,1.866,2.305,5.042-0.554,2.52c-0.958-0.846-2.054-1.459-3.128-1.905
			c-2.595-1.075-5.987-0.858-8.452,0.409l0,0c0,0,0.427-3.087-1.152-5.624C137.203,40.005,132.734,35.836,135.14,34.496z"/>
		<path fill="#31A444" d="M153.879,24.537c-0.426-1.713-2.576-1.48-3.802-1.196c3.354-1.034,10.845-4.071,8.354-5.282
			c-2.736-1.33-9.267,3.322-9.267,3.322c3.662-2.442,4.262-5.692,3.56-6.368s-2.382,0.7-5.152,4.176
			c-2.771,3.476-5.12,4.075-5.12,4.075s0.987-3.13,4.344-6.365c3.356-3.235,9.42-7.208,7.548-8.366
			c-1.871-1.158-6.931,2.834-6.931,2.834c1.883-3.542,5.16-11.05,0.841-9.979c-3.671,0.91-4.408,7.899-4.546,9.98
			c-0.014-1.02-0.349-3.174-2.73-4.825c-3.229-2.238-5.86,1.324-2.375,3.6c3.487,2.276,1.569,11.349,1.569,11.349
			s-1.66-0.906-1.874-2.607c-0.215-1.702,1.829-6.713-1.394-6.05c-3.222,0.663-1.512,5.583-1.512,5.583s-3.371-5.826-6.38-3.945
			c-2.09,1.306,1.771,3.73,4.326,5.089c-3.882-1.31-6.529,1.292-2.276,1.85c1.427,0.187,2.693,0.605,3.773,1.105
			c2.609,1.21,4.228,3.494,4.35,5.968l0,0c0,0,3.055-1.852,6.582-2.206S154.482,26.961,153.879,24.537z"/>
	</g>
	<g>
		<g>
			<g>
				<path fill="#00873E" d="M104.592,52.995c0,0,15.293,11.936,31.358,67.972c0.665,2.325,0.603,2.281,0.868,4.01
					c0.127,0.839-6.534,1.878-6.745,1.051c-1.166-4.549-6.256-28.129-15.117-50.691C108.703,59.412,104.592,52.995,104.592,52.995z"
					/>
			</g>
		</g>
		<g>
			<g>
				<path fill="#00873E" d="M120.76,83.347c-1.266-12.447,4.591-22.157,4.591-22.157s-1.798,5.179-2.206,16.322
					c-0.085,2.372,0.351,7.542,0.622,9.851C123.229,86.792,121.236,83.943,120.76,83.347z"/>
			</g>
		</g>
		<g>
			<g>
				<path fill="#00873E" d="M112.119,82.158c2.837,0.615,7.392,3.163,10.309,6.051c0.014,0.546,3.065,5.485,3.015,6.05
					c-1.261-1.296-7.867-8.54-13.994-10.492C111.694,83.576,111.918,82.379,112.119,82.158z"/>
			</g>
		</g>
		<path fill="#31A444" d="M113.929,64.058c1.253-1.071,2.671-0.09,3.396,0.579c-1.842-2.013-5.553-7.032-3.092-6.959
			c2.702,0.079,4.83,5.895,4.83,5.895c-1.284-3.143,0.079-5.706,0.957-5.926s1.326,1.404,1.4,4.953
			c0.074,3.548,1.187,4.559,1.187,4.559s1.263-2.316,0.636-5.912c-0.628-3.597-2.795-8.75-0.81-8.874s3.42,4.662,3.42,4.662
			c0.601-3.26,2.392-9.899,4.907-7.495c2.136,2.043-1.194,7.349-2.243,8.897c0.572-0.728,2.004-2.151,4.628-2.436
			c3.558-0.388,3.482,3.169-0.281,3.487c-3.764,0.318-7.395,7.568-7.395,7.568s1.694-0.023,2.789-1.166
			c1.094-1.143,2.39-5.52,4.342-3.824c1.952,1.696-1.996,4.586-1.996,4.586s5.643-2.914,6.768-0.423
			c0.781,1.73-3.333,2.013-5.921,2.024c3.516,0.526,3.982,3.399,0.616,2.191c-1.129-0.406-2.271-0.583-3.324-0.632
			c-2.545-0.118-4.969,0.913-6.423,2.646l0,0c0,0-1.175-2.488-3.517-4.077C116.461,66.792,112.159,65.573,113.929,64.058z"/>
		<path fill="#31A444" d="M111.334,71.985c-0.827-0.048-1.665,2.048-1.448,2.933c-0.859-2.438-3.338-6.606-4.744-4.919
			c-1.543,1.853,2.853,6.762,2.853,6.762c-2.294-2.742-5.613-3.37-6.354-2.915c-0.741,0.455,0.575,1.728,3.99,3.905
			c3.415,2.178,3.888,3.877,3.888,3.877s-3.171-0.894-6.3-3.47c-3.132-2.577-6.855-7.115-8.167-5.863
			c-1.311,1.252,2.495,5.081,2.495,5.081c-3.539-1.555-11.087-4.34-10.251-1.218c0.71,2.652,7.881,3.61,10.021,3.839
			c-1.054-0.055-3.298,0.047-5.151,1.63c-2.512,2.145,1.002,4.228,3.569,1.904c2.568-2.325,11.815-0.403,11.815-0.403
			s-1.039,1.119-2.809,1.164c-1.771,0.045-6.817-1.712-6.334,0.608c0.484,2.321,5.67,1.418,5.67,1.418s-6.225,2.022-4.471,4.267
			c1.218,1.561,3.961-1.02,5.524-2.742c-1.596,2.665,0.927,4.699,1.767,1.726c0.283-0.998,0.792-1.867,1.377-2.6
			c1.412-1.772,4.122-2.845,6.684-2.776l0,0c0,0-1.972-2.206-2.118-4.723S113.891,72.131,111.334,71.985z"/>
		<path fill="#31A444" d="M97.33,60.403c-0.125-1.541,1.772-1.762,2.896-1.758c-3.148-0.228-10.388-1.354-8.613-2.87
			c1.952-1.665,8.832,1.023,8.832,1.023c-3.811-1.366-5.246-4.016-4.838-4.728c0.405-0.712,2.226,0.132,5.572,2.551
			c3.347,2.419,5.517,2.472,5.517,2.472s-1.73-2.472-5.508-4.573c-3.775-2.1-10.067-4.303-8.802-5.652
			c1.264-1.35,6.705,1.063,6.705,1.063c-2.61-2.648-7.531-8.402-3.551-8.332c3.384,0.06,5.997,5.867,6.707,7.611
			c-0.279-0.871-0.605-2.771,0.953-4.639c2.114-2.534,5.365-0.014,3.043,2.604c-2.32,2.616,1.89,9.966,1.89,9.966
			s1.156-1.095,0.855-2.584c-0.301-1.49-3.465-5.359-0.534-5.422c2.931-0.063,2.872,4.458,2.872,4.458s1.215-5.616,4.312-4.602
			c2.151,0.706-0.448,3.52-2.236,5.175c2.934-1.872,5.925-0.172,2.464,1.131c-1.163,0.437-2.121,1.04-2.899,1.676
			c-1.878,1.539-2.606,3.798-2.007,5.927l0,0c0,0-3.128-0.981-6.231-0.596C101.627,60.692,97.505,62.584,97.33,60.403z"/>
	</g>
	<g>
		<g>
			<g>
				<path fill="#00873E" d="M167.195,61.597c0,0-14.851,9.343-29.041,55.689c-0.588,1.923,0.809,2.416,0.575,3.847
					c-0.112,0.692,3.748,1.238,3.935,0.555c1.028-3.763,6.694-26.214,14.641-41.35C163.973,67.639,167.195,61.597,167.195,61.597z"
					/>
			</g>
		</g>
		<g>
			<g>
				<path fill="#00873E" d="M152.914,86.7c1.118-10.296-4.057-18.326-4.057-18.326s1.588,4.284,1.948,13.5
					c0.078,1.962-0.309,6.238-0.549,8.147C150.732,89.55,152.492,87.193,152.914,86.7z"/>
			</g>
		</g>
		<g>
			<g>
				<path fill="#00873E" d="M160.545,85.716c-2.506,0.51-6.528,2.617-9.104,5.005c-0.013,0.453-2.707,4.538-2.664,5.004
					c1.114-1.072,6.95-7.063,12.362-8.677C160.922,86.89,160.724,85.899,160.545,85.716z"/>
			</g>
		</g>
		<path fill="#31A444" d="M158.946,70.747c-1.106-0.886-2.359-0.074-2.998,0.479c1.625-1.665,4.903-5.815,2.73-5.756
			c-2.388,0.065-4.266,4.875-4.266,4.875c1.135-2.599-0.069-4.72-0.846-4.901c-0.776-0.182-1.171,1.161-1.236,4.096
			c-0.065,2.935-1.05,3.771-1.05,3.771s-1.115-1.916-0.56-4.891c0.553-2.974,2.467-7.236,0.714-7.338s-3.021,3.855-3.021,3.855
			c-0.53-2.697-2.111-8.188-4.332-6.199c-1.889,1.69,1.053,6.078,1.98,7.359c-0.507-0.603-1.771-1.779-4.089-2.015
			c-3.142-0.32-3.076,2.622,0.248,2.884c3.326,0.263,6.532,6.26,6.532,6.26s-1.498-0.02-2.463-0.965
			c-0.965-0.944-2.111-4.565-3.836-3.163c-1.724,1.403,1.763,3.793,1.763,3.793s-4.983-2.41-5.978-0.35
			c-0.69,1.431,2.944,1.664,5.231,1.674c-3.106,0.436-3.518,2.812-0.546,1.812c0.999-0.334,2.007-0.482,2.938-0.522
			c2.249-0.097,4.389,0.755,5.673,2.188l0,0c0,0,1.039-2.058,3.106-3.372C156.711,73.008,160.512,72,158.946,70.747z"/>
		<path fill="#31A444" d="M161.238,77.303c0.732-0.04,1.472,1.694,1.28,2.426c0.758-2.016,2.948-5.464,4.189-4.069
			c1.363,1.533-2.519,5.594-2.519,5.594c2.025-2.269,4.957-2.788,5.611-2.411c0.655,0.376-0.507,1.429-3.524,3.229
			c-3.017,1.802-3.434,3.208-3.434,3.208s2.8-0.74,5.564-2.872c2.766-2.13,6.056-5.884,7.214-4.847
			c1.158,1.034-2.203,4.202-2.203,4.202c3.126-1.285,9.794-3.589,9.056-1.007c-0.627,2.194-6.962,2.986-8.852,3.176
			c0.931-0.045,2.914,0.04,4.55,1.348c2.219,1.774-0.885,3.498-3.152,1.576c-2.268-1.922-10.436-0.333-10.436-0.333
			s0.918,0.924,2.481,0.963c1.563,0.038,6.021-1.417,5.594,0.502c-0.427,1.918-5.007,1.173-5.007,1.173s5.498,1.67,3.948,3.529
			c-1.076,1.29-3.498-0.844-4.879-2.269c1.409,2.205-0.819,3.887-1.562,1.427c-0.249-0.824-0.7-1.544-1.217-2.151
			c-1.246-1.464-3.642-2.352-5.904-2.296l0,0c0,0,1.743-1.825,1.871-3.906C160.039,81.413,158.981,77.424,161.238,77.303z"/>
		<path fill="#31A444" d="M173.61,67.724c0.109-1.275-1.566-1.457-2.56-1.454c2.782-0.188,9.178-1.12,7.609-2.374
			c-1.725-1.377-7.803,0.847-7.803,0.847c3.367-1.129,4.633-3.321,4.275-3.91c-0.359-0.589-1.966,0.11-4.924,2.11
			c-2.956,2-4.874,2.044-4.874,2.044s1.53-2.044,4.866-3.782c3.335-1.737,8.893-3.558,7.774-4.675
			c-1.116-1.116-5.922,0.88-5.922,0.88c2.305-2.191,6.652-6.95,3.137-6.892c-2.989,0.049-5.298,4.852-5.924,6.295
			c0.247-0.72,0.535-2.292-0.843-3.837c-1.866-2.095-4.739-0.01-2.688,2.153c2.05,2.164-1.668,8.243-1.668,8.243
			s-1.022-0.905-0.755-2.138c0.264-1.232,3.06-4.432,0.471-4.484c-2.59-0.053-2.537,3.687-2.537,3.687s-1.075-4.645-3.809-3.805
			c-1.899,0.583,0.396,2.912,1.976,4.28c-2.592-1.548-5.234-0.142-2.176,0.935c1.024,0.362,1.873,0.86,2.56,1.387
			c1.658,1.272,2.302,3.141,1.773,4.902l0,0c0,0,2.762-0.812,5.503-0.493C169.813,67.963,173.455,69.528,173.61,67.724z"/>
	</g>
	<g>
		<g>
			<path fill="#F27321" d="M107.343,150.185c-1.382,21.213,2.015,41.575,6.148,62.358c4.046,20.347,14.377,55.729,21.736,55.64
				c7.748-0.096,22.583-40.968,23.873-46.657c4.464-19.687,10.092-49.473,9.026-72.076c-0.726-15.423-8.198-31.124-31.047-31.056
				C117.666,118.452,108.41,133.838,107.343,150.185z"/>
			<path fill="#DC691E" d="M137.08,118.394c-5.946,0.018-10.929,1.484-15.025,3.964c22.763,2.686,27.337,10.486,29.327,46.749
				c1.214,22.105-10.796,103.379-23.121,91.344c2.422,4.755,4.821,7.759,6.967,7.732c7.748-0.096,22.583-40.968,23.873-46.657
				c4.464-19.687,10.092-49.473,9.026-72.076C167.401,134.026,159.929,118.326,137.08,118.394z"/>
		</g>
		<path fill="#F68F31" d="M127.316,135.301c-15.479-1.301-16.993,20.937-2.176,21.912
			C138.526,158.092,142.681,136.596,127.316,135.301z"/>
		<g>
			<path fill="#DC691E" d="M115.319,142.711c3.105,0.478,6.213,0.946,9.353,1.277c1.571,0.169,3.138,0.331,4.725,0.431
				c1.575,0.143,3.158,0.17,4.738,0.236c-6.033-1.555-11.942-3.134-17.861-4.764l-6.474-1.79c-0.4,1.11-0.751,2.247-1.055,3.404
				C110.931,141.924,113.115,142.348,115.319,142.711z"/>
			<path fill="#C85F19" d="M160.176,155.771c2.705-0.37,5.384-0.87,8.072-1.396c-0.009-1.3-0.042-2.574-0.09-3.836
				c-0.368,0.113-0.737,0.226-1.109,0.336c-2.523,0.771-5.108,1.433-7.688,2.142c-5.169,1.396-10.424,2.696-15.606,4.302
				C149.264,157.031,154.73,156.553,160.176,155.771z"/>
			<path fill="#C85F19" d="M159.418,180.292c-5.526,1.489-11.151,2.825-16.737,4.432c5.903-0.189,11.756-0.728,17.588-1.553
				c2.012-0.306,4.021-0.66,6.024-1.04c0.17-1.297,0.323-2.592,0.474-3.889C164.332,178.942,161.892,179.639,159.418,180.292z"/>
			<path fill="#DC691E" d="M107.323,166.042c2.7,0.601,5.392,1.216,8.132,1.692c2.731,0.498,5.486,0.925,8.26,1.249
				c1.385,0.169,2.777,0.305,4.179,0.406c1.393,0.139,2.793,0.147,4.191,0.216c-5.304-1.467-10.458-2.977-15.606-4.564
				c-2.558-0.814-5.137-1.572-7.673-2.42c-0.569-0.187-1.143-0.37-1.715-0.557c0.018,1.312,0.004,2.627,0.051,3.932
				C107.203,166.012,107.262,166.028,107.323,166.042z"/>
			<path fill="#C85F19" d="M158.326,207.146c-3.067,0.856-6.179,1.591-9.309,2.336c-3.142,0.715-6.299,1.395-9.512,2.05
				c3.294,0.111,6.616,0.026,9.909-0.229c3.305-0.223,6.58-0.661,9.846-1.167c0.795-0.14,1.588-0.291,2.382-0.438
				c0.244-1.209,0.487-2.445,0.73-3.689C161.031,206.402,159.688,206.797,158.326,207.146z"/>
			<path fill="#DC691E" d="M115.152,194.918c2.896,0.469,5.792,0.891,8.723,1.077c2.931,0.25,5.857,0.275,8.768,0.209
				c-2.826-0.604-5.629-1.205-8.366-1.862c-2.752-0.655-5.458-1.386-8.125-2.16c-2.259-0.696-4.494-1.412-6.673-2.208
				c0.19,1.283,0.402,2.567,0.61,3.853C111.764,194.234,113.447,194.62,115.152,194.918z"/>
			<path fill="#DC691E" d="M116.896,222.968c2.028,0.162,4.063,0.243,6.094,0.303c2.022,0.081,4.088-0.009,6.106-0.03
				c2.019-0.073,4.018-0.243,6.032-0.415l-2.965-0.465c-0.986-0.143-1.99-0.25-2.96-0.424c-1.951-0.328-3.878-0.562-5.802-0.933
				c-1.931-0.304-3.843-0.645-5.734-1.031c-0.903-0.148-1.796-0.324-2.685-0.509c0.255,1.114,0.521,2.245,0.801,3.398
				C116.154,222.896,116.523,222.942,116.896,222.968z"/>
			<path fill="#DC691E" d="M125.536,249.52c-0.694-0.163-1.376-0.332-2.062-0.5c0.344,0.958,0.691,1.899,1.04,2.814
				c3.801,0.181,7.607,0.233,11.408,0.073L125.536,249.52z"/>
			<path fill="#C85F19" d="M146.323,236.49c-2.982,0.582-5.972,1.189-8.981,1.828c3.148,0.114,6.299,0.105,9.436-0.021
				c2.204-0.061,4.395-0.214,6.582-0.384c0.415-1.047,0.817-2.08,1.199-3.081L146.323,236.49z"/>
		</g>
	</g>
</g>
</svg>
