<?xml version="1.0" encoding="utf-8"?>
<!-- Generator: Adobe Illustrator 16.0.0, SVG Export Plug-In . SVG Version: 6.00 Build 0)  -->
<!DOCTYPE svg PUBLIC "-//W3C//DTD SVG 1.1//EN" "http://www.w3.org/Graphics/SVG/1.1/DTD/svg11.dtd">
<svg version="1.1" id="Layer_1" xmlns="http://www.w3.org/2000/svg" xmlns:xlink="http://www.w3.org/1999/xlink" x="0px" y="0px"
	 width="208.625px" height="39.5px" viewBox="0 0 208.625 39.5" enable-background="new 0 0 208.625 39.5" xml:space="preserve">
<g>
	<path fill="#FFFFFF" stroke="#FFFFFF" stroke-width="0.6174" d="M43.112,14.386c0.463-0.896,0.77-1.697,0.77-2.604
		c0-0.907-0.214-1.701-0.642-2.385c-0.429-0.683-1.037-1.208-1.826-1.577c-0.79-0.368-1.691-0.553-2.703-0.553
		c-0.88,0-1.838,0.158-2.875,0.471c-1.037,0.314-2.061,0.757-3.073,1.331c-1.013,0.572-1.99,1.258-2.93,2.054
		c-1.206,1.026-2.246,2.184-3.119,3.476c-0.875,1.291-1.537,2.663-1.989,4.117c-0.452,1.454-0.677,2.917-0.677,4.389
		c0,3.017,1.019,5.328,3.059,6.932c1.373,1.106,2.908,1.66,4.608,1.66c1.024,0,2.029-0.212,3.017-0.634
		c0.988-0.423,1.907-1.029,2.756-1.82c0.849-0.791,1.56-1.687,2.132-2.689c0.572-1.002,0.972-2.083,1.201-3.242l0.33,0.018
		c-0.374,1.773-1.084,3.381-2.132,4.822c-1.048,1.441-2.316,2.566-3.804,3.375c-1.487,0.807-3.062,1.211-4.724,1.211
		c-2.229,0-4.066-0.766-5.511-2.297c-1.445-1.532-2.167-3.486-2.167-5.863c0-1.314,0.198-2.689,0.595-4.125
		c0.397-1.435,0.98-2.834,1.751-4.198c0.77-1.362,1.666-2.594,2.688-3.691c1.097-1.193,2.309-2.238,3.635-3.137
		c1.326-0.898,2.667-1.585,4.022-2.061S38.14,6.65,39.346,6.65c1.012,0,1.91,0.184,2.694,0.552c0.784,0.368,1.389,0.886,1.817,1.555
		s0.643,1.431,0.643,2.287c0,1.133-0.2,2.291-0.76,3.439"/>
</g>
<path fill="#FFFFFF" stroke="#FFFFFF" stroke-width="0.6174" d="M13.632,11.891c0.334,1.209,1.012,3.317,2.008,4.901
	c1.465,2.33-1.077,5.381-3.972,3.953c-1.324-0.653-1.18-2.084-1.528-2.222c-0.348-0.139-1.194,1.569-3.191,1.037
	c-2.361-0.629-2.366-2.217-1.602-3.538c0.764-1.32,5.596-2.986,5.557-3.889c-0.018-0.417-3.265,0.694-4.515,0.972
	c-1.25,0.277-3.7,0.464-4.3-1.467c-0.497-1.598,0.365-2.714,1.199-3.062s2.128-0.264,2.268-0.542
	c0.139-0.277-1.111-1.181-0.487-2.64c0.626-1.458,2.479-2.41,4.143-1.278c1.381,0.939,1.653,2.671,1.931,4.061
	c0.278,1.389,0.345,2.368,0.873,1.455c0.528-0.913-0.139-2.64-0.139-3.334s-0.216-3.157,1.729-3.712
	c1.945-0.556,3.342,0.934,3.48,2.114c0.139,1.182-0.23,1.605,0.048,1.812c0.278,0.208,1.464-0.985,2.801-0.215
	c1.526,0.88,1.142,4.116-0.803,4.742c-1.945,0.625-4.535,0.783-5.551,0.667"/>
<g>
	<path fill="#FFFFFF" stroke="#FFFFFF" stroke-width="0.6174" d="M44.336,22.968c-0.085,0.495-0.127,1.043-0.127,1.645
		c0,1.458,0.187,2.586,0.562,3.382c0.374,0.796,0.912,1.192,1.614,1.192c1.256,0,2.965-1.114,5.128-3.345
		c0.809-0.807,1.474-1.524,1.993-2.151c0.156-0.205,0.284-0.308,0.381-0.308c0.109,0,0.163,0.06,0.163,0.181
		c0,0.061-0.223,0.337-0.67,0.833c-1.835,2.05-3.333,3.508-4.492,4.376c-1.159,0.868-2.203,1.302-3.133,1.302
		c-0.845,0-1.494-0.376-1.947-1.13c-0.453-0.753-0.679-1.831-0.679-3.229c0-2.219,0.513-4.637,1.54-7.253
		c1.341-3.425,2.682-5.939,4.022-7.543c0.616-0.736,1.172-1.103,1.667-1.103c0.229,0,0.42,0.094,0.571,0.281
		c0.15,0.187,0.227,0.443,0.227,0.768c0,1.351-1.052,3.704-3.156,7.056c-0.532,0.844-1.106,1.682-1.723,2.514
		c-0.52,0.7-0.822,1.104-0.907,1.212l-0.726,0.922C44.62,22.595,44.517,22.727,44.336,22.968z M44.444,22.245
		c0.447-0.506,0.953-1.156,1.521-1.952c0.519-0.724,1.028-1.474,1.528-2.252c0.5-0.778,0.93-1.492,1.285-2.143
		c0.355-0.651,0.643-1.224,0.86-1.719c0.651-1.41,0.978-2.417,0.978-3.02c0-0.205-0.048-0.371-0.145-0.497
		c-0.097-0.127-0.229-0.19-0.398-0.19c-0.422,0-0.984,0.524-1.683,1.573c-0.7,1.049-1.394,2.387-2.081,4.015
		c-0.266,0.675-0.531,1.399-0.797,2.169c-0.265,0.771-0.476,1.453-0.633,2.044C44.722,20.865,44.578,21.522,44.444,22.245z"/>
	<path fill="#FFFFFF" stroke="#FFFFFF" stroke-width="0.6174" d="M58.041,24.828c-0.024-0.012-0.069-0.037-0.136-0.072
		c-0.066-0.036-0.117-0.055-0.153-0.055c-0.591-0.242-0.887-0.498-0.887-0.765c0-0.194,0.121-0.291,0.364-0.291
		c0.388,0,0.745,0.298,1.073,0.893c0.551,0.194,1.067,0.291,1.55,0.291c1.146,0,2.116-0.443,2.912-1.329
		c0.109-0.121,0.193-0.182,0.253-0.182c0.097,0,0.145,0.055,0.145,0.164c0,0.122-0.157,0.321-0.471,0.6
		c-0.82,0.73-1.766,1.094-2.84,1.094c-0.374,0-0.826-0.07-1.356-0.213c0.039,0.433,0.058,0.722,0.058,0.867
		c0,0.732-0.208,1.453-0.625,2.162c-0.417,0.709-0.951,1.292-1.603,1.749c-0.652,0.456-1.31,0.683-1.973,0.683
		c-0.737,0-1.346-0.271-1.829-0.813C52.041,29.066,51.8,28.397,51.8,27.6c0-0.928,0.274-1.854,0.824-2.779
		c0.549-0.922,1.255-1.679,2.118-2.271c0.863-0.591,1.722-0.888,2.58-0.888c0.325,0,0.622,0.04,0.887,0.118s0.399,0.179,0.399,0.299
		c0,0.108-0.09,0.243-0.267,0.399c-0.148,0.122-0.253,0.183-0.314,0.183l-0.185-0.074c-0.397-0.23-0.74-0.346-1.029-0.346
		c-1.035,0-1.956,0.464-2.762,1.391c-0.806,0.928-1.209,1.969-1.209,3.124c0,0.736,0.211,1.343,0.632,1.825
		c0.421,0.482,0.951,0.722,1.589,0.722c0.83,0,1.555-0.354,2.175-1.06c0.621-0.707,0.93-1.528,0.93-2.464
		C58.167,25.481,58.125,25.164,58.041,24.828z"/>
	<path fill="#FFFFFF" stroke="#FFFFFF" stroke-width="0.6174" d="M68.883,23.864c0.421,0.514,0.939,0.771,1.553,0.771
		c0.711,0,1.379-0.386,2.006-1.158c0.133-0.157,0.228-0.235,0.288-0.235c0.097,0,0.145,0.055,0.145,0.165
		c0,0.074-0.102,0.232-0.306,0.476c-0.698,0.759-1.414,1.137-2.147,1.137c-0.602,0-1.162-0.272-1.678-0.82
		c-0.846,1.713-1.766,3.044-2.761,3.992c-0.995,0.947-1.95,1.42-2.866,1.42c-0.568,0-1.023-0.205-1.367-0.618
		c-0.344-0.413-0.516-0.935-0.516-1.565c0-0.631,0.187-1.366,0.559-2.209c0.373-0.843,0.884-1.67,1.534-2.483
		c0.399-0.207,0.853-0.329,1.361-0.364c-0.787,0.957-1.393,1.864-1.815,2.718c-0.424,0.855-0.636,1.615-0.636,2.282
		c0,0.412,0.132,0.773,0.399,1.082c0.266,0.309,0.6,0.463,0.999,0.463c0.459,0,0.967-0.191,1.523-0.575
		c0.556-0.382,1.101-0.904,1.633-1.567c0.532-0.662,0.981-1.376,1.344-2.142l0.235-0.483c0.083-0.192,0.125-0.299,0.125-0.324
		c0-0.035-0.077-0.244-0.231-0.627c-0.107-0.299-0.16-0.675-0.16-1.13c0-0.406,0.06-0.755,0.178-1.047
		c0.118-0.293,0.26-0.44,0.427-0.44c0.154,0,0.278,0.117,0.373,0.349c0.095,0.234,0.142,0.548,0.142,0.942
		C69.221,22.507,69.108,23.171,68.883,23.864z"/>
	<path fill="#FFFFFF" stroke="#FFFFFF" stroke-width="0.6174" d="M71.74,25.812c-0.157,0.564-0.236,1.033-0.236,1.405
		c0,0.6,0.188,1.099,0.563,1.494c0.375,0.396,0.859,0.594,1.453,0.594c0.581,0,1.207-0.175,1.878-0.525
		c0.671-0.35,1.441-0.91,2.31-1.683c0.869-0.772,1.791-1.708,2.768-2.807l0.434-0.488l0.253-0.29
		c0.109-0.121,0.199-0.181,0.271-0.181c0.097,0,0.145,0.048,0.145,0.145c0,0.084-0.211,0.356-0.633,0.814
		c-1.796,2.03-3.329,3.521-4.595,4.476c-1.41,1.079-2.609,1.62-3.596,1.62c-0.675,0-1.232-0.226-1.671-0.678
		c-0.44-0.452-0.66-1.035-0.66-1.747c0-0.856,0.289-1.791,0.865-2.804c0.637-1.109,1.444-2.058,2.423-2.849
		c0.979-0.79,1.846-1.186,2.603-1.186c0.372,0,0.661,0.086,0.865,0.255s0.306,0.417,0.306,0.743c0,0.568-0.256,1.145-0.768,1.73
		c-0.512,0.585-1.157,1.069-1.933,1.449c-0.777,0.382-1.539,0.571-2.285,0.571C72.379,25.87,72.125,25.851,71.74,25.812z
		 M71.903,25.412c0.205,0.048,0.435,0.072,0.689,0.072c0.605,0,1.229-0.153,1.871-0.461c0.641-0.307,1.177-0.703,1.606-1.186
		c0.429-0.482,0.645-0.947,0.645-1.394c0-0.495-0.272-0.742-0.817-0.742c-0.823,0-1.748,0.58-2.777,1.738
		C72.683,23.91,72.277,24.567,71.903,25.412z"/>
	<path fill="#FFFFFF" stroke="#FFFFFF" stroke-width="0.6174" d="M82.109,22.941c0.185,0.048,0.338,0.072,0.461,0.072
		c0.603,0,1.273-0.18,2.011-0.542c0.532-0.266,0.853-0.398,0.959-0.398c0.13,0,0.234,0.037,0.312,0.109
		c0.077,0.072,0.115,0.17,0.115,0.291c0,0.145-0.054,0.271-0.159,0.38l-0.623,0.797c-1.254,1.534-1.88,2.828-1.88,3.883
		c0,0.467,0.147,0.854,0.443,1.159c0.295,0.306,0.666,0.458,1.112,0.458c0.555,0,1.158-0.204,1.809-0.612
		c0.651-0.408,1.471-1.084,2.46-2.031c0.784-0.743,1.525-1.503,2.225-2.283l0.524-0.593l0.163-0.162
		c0.048-0.06,0.097-0.09,0.145-0.09c0.108,0,0.163,0.048,0.163,0.144c0,0.061-0.121,0.228-0.362,0.504
		c-1.894,2.139-3.428,3.649-4.604,4.532c-1.176,0.883-2.234,1.325-3.174,1.325c-0.616,0-1.12-0.192-1.512-0.577
		c-0.393-0.384-0.589-0.883-0.589-1.496c0-1.201,0.696-2.654,2.09-4.359c0.125-0.17,0.187-0.274,0.187-0.31
		c0-0.073-0.05-0.11-0.147-0.11c-0.074,0-0.239,0.044-0.496,0.128c-0.404,0.135-0.747,0.202-1.027,0.202
		c-0.27,0-0.546-0.048-0.827-0.146c0,0.012-0.012,0.03-0.036,0.055l-0.313,0.362c-0.232,0.278-0.397,0.417-0.496,0.417
		s-0.147-0.042-0.147-0.127c0-0.036,0.024-0.084,0.072-0.146c0.037-0.035,0.069-0.068,0.1-0.098c0.03-0.03,0.051-0.058,0.063-0.082
		l0.271-0.344l0.217-0.253c-0.132-0.217-0.199-0.434-0.199-0.652c0-0.434,0.149-0.851,0.448-1.249
		c0.298-0.398,0.606-0.598,0.923-0.598c0.304,0,0.457,0.163,0.457,0.488c0,0.338-0.307,0.899-0.92,1.682
		C82.281,22.718,82.207,22.809,82.109,22.941z"/>
	<path fill="#FFFFFF" stroke="#FFFFFF" stroke-width="0.6174" d="M94.34,26.889c0.589,0.17,1.135,0.254,1.64,0.254
		c1.826,0,3.53-0.851,5.117-2.553l0.594-0.651c0.048-0.048,0.09-0.09,0.126-0.127c0.036-0.036,0.066-0.066,0.09-0.09
		c0.156-0.206,0.27-0.308,0.343-0.308c0.107,0,0.162,0.054,0.162,0.163c0,0.108-0.288,0.47-0.864,1.085
		c-0.974,1.032-1.924,1.8-2.855,2.304c-0.931,0.504-1.9,0.755-2.909,0.755c-0.336,0-0.793-0.054-1.369-0.163l-0.018,0.344
		c0,1.23-0.106,2.369-0.316,3.419c-0.211,1.048-0.54,2.073-0.984,3.074c-0.376,0.883-0.827,1.606-1.354,2.169
		c-0.527,0.562-1.008,0.843-1.444,0.843s-0.775-0.233-1.018-0.697c-0.242-0.464-0.363-1.131-0.363-2
		c0-0.749,0.076-1.527,0.227-2.336c0.151-0.809,0.426-1.896,0.825-3.259c0.265-0.844,0.546-1.686,0.842-2.525
		c0.295-0.839,0.654-1.785,1.077-2.835c0.41-1.026,0.859-2.045,1.348-3.059c0.488-1.014,0.975-1.962,1.457-2.843
		c0.482-0.882,0.992-1.742,1.529-2.581c0.536-0.839,1.107-1.663,1.71-2.472c1.077-1.396,1.878-2.095,2.405-2.095
		c0.311,0,0.467,0.192,0.467,0.574c0,0.502-0.231,1.232-0.69,2.189c-0.649,1.291-1.677,2.883-3.083,4.775
		c-1.318,1.736-2.401,3.063-3.247,3.979l-0.853,0.921l-0.617,0.687c-0.41,0.983-0.795,2.1-1.155,3.35
		c-0.876,2.93-1.314,5.166-1.314,6.709c0,0.663,0.096,1.197,0.291,1.601c0.194,0.404,0.455,0.605,0.782,0.605
		c0.74,0,1.443-0.862,2.109-2.585c0.683-1.761,1.024-3.563,1.024-5.409c0-0.265-0.012-0.482-0.036-0.651
		c-0.024-0.024-0.039-0.038-0.044-0.044c-0.006-0.006-0.016-0.009-0.027-0.009l-0.359-0.181c-0.405-0.23-0.725-0.498-0.958-0.802
		c-0.233-0.303-0.35-0.608-0.35-0.913c0-0.474,0.201-0.711,0.604-0.711c0.341,0,0.637,0.183,0.887,0.548
		C94.014,25.703,94.206,26.219,94.34,26.889z M93.922,26.724c-0.108-0.411-0.255-0.759-0.44-1.043
		c-0.186-0.285-0.362-0.429-0.53-0.429c-0.144,0-0.216,0.086-0.216,0.255C92.736,25.919,93.131,26.326,93.922,26.724z M92.79,22.763
		c0.541-0.518,1.244-1.319,2.11-2.404c1.707-2.123,2.981-3.875,3.823-5.263c0.433-0.711,0.784-1.369,1.055-1.972
		c0.27-0.603,0.406-1.043,0.406-1.321c0-0.193-0.09-0.29-0.271-0.29c-0.265,0-0.743,0.429-1.434,1.285
		c-0.691,0.856-1.487,2.026-2.389,3.509c-0.433,0.724-0.854,1.456-1.263,2.197c-0.409,0.742-0.805,1.524-1.19,2.351
		C93.253,21.681,92.97,22.317,92.79,22.763z"/>
	<path fill="#FFFFFF" stroke="#FFFFFF" stroke-width="0.6174" d="M104.048,22.28l-0.181,0.26c-0.859,1.342-1.469,2.43-1.831,3.264
		c-0.363,0.833-0.544,1.565-0.544,2.193c0,0.64,0.26,0.96,0.781,0.96c0.435,0,1.009-0.208,1.723-0.627
		c0.714-0.417,1.524-1.026,2.432-1.825c0.907-0.8,1.753-1.637,2.54-2.509c0.302-0.344,0.496-0.518,0.581-0.518
		c0.108,0,0.163,0.052,0.163,0.155c0,0.049-0.314,0.406-0.941,1.072c-0.955,1.005-1.893,1.9-2.816,2.688
		c-0.923,0.786-1.762,1.385-2.516,1.796c-0.755,0.413-1.361,0.618-1.819,0.618c-0.399,0-0.719-0.129-0.96-0.389
		c-0.241-0.261-0.362-0.609-0.362-1.045c0-1.102,0.495-2.518,1.486-4.25c0.327-0.587,0.665-1.12,1.016-1.601
		C103.281,22.384,103.698,22.304,104.048,22.28z M107.088,18.006c-0.061,0.036-0.116,0.078-0.164,0.126l-0.583,0.435
		c-0.68,0.52-1.268,1.039-1.766,1.557l-0.073,0.072c-0.206-0.072-0.309-0.168-0.309-0.289c0-0.206,0.26-0.585,0.783-1.141
		c0.606-0.615,1.123-0.924,1.547-0.924C106.706,17.843,106.894,17.897,107.088,18.006z"/>
	<path fill="#FFFFFF" stroke="#FFFFFF" stroke-width="0.6174" d="M108.769,25.812c-0.158,0.564-0.235,1.033-0.235,1.405
		c0,0.6,0.187,1.099,0.562,1.494c0.375,0.396,0.859,0.594,1.453,0.594c0.581,0,1.207-0.175,1.878-0.525
		c0.672-0.35,1.442-0.91,2.311-1.683c0.868-0.772,1.791-1.708,2.768-2.807l0.434-0.488l0.253-0.29
		c0.108-0.121,0.198-0.181,0.271-0.181c0.096,0,0.145,0.048,0.145,0.145c0,0.084-0.211,0.356-0.633,0.814
		c-1.797,2.03-3.329,3.521-4.595,4.476c-1.41,1.079-2.608,1.62-3.596,1.62c-0.675,0-1.232-0.226-1.672-0.678
		c-0.44-0.452-0.66-1.035-0.66-1.747c0-0.856,0.288-1.791,0.865-2.804c0.636-1.109,1.444-2.058,2.423-2.849
		c0.979-0.79,1.847-1.186,2.603-1.186c0.372,0,0.66,0.086,0.865,0.255c0.204,0.169,0.306,0.417,0.306,0.743
		c0,0.568-0.256,1.145-0.768,1.73c-0.512,0.585-1.156,1.069-1.933,1.449c-0.777,0.382-1.539,0.571-2.286,0.571
		C109.407,25.87,109.154,25.851,108.769,25.812z M108.931,25.412c0.206,0.048,0.436,0.072,0.69,0.072
		c0.605,0,1.229-0.153,1.87-0.461c0.642-0.307,1.177-0.703,1.607-1.186c0.429-0.482,0.645-0.947,0.645-1.394
		c0-0.495-0.273-0.742-0.817-0.742c-0.823,0-1.749,0.58-2.777,1.738C109.712,23.91,109.306,24.567,108.931,25.412z"/>
	<path fill="#FFFFFF" stroke="#FFFFFF" stroke-width="0.6174" d="M118.917,22.968c-0.085,0.495-0.127,1.043-0.127,1.645
		c0,1.458,0.187,2.586,0.562,3.382c0.374,0.796,0.912,1.192,1.614,1.192c1.256,0,2.965-1.114,5.127-3.345
		c0.81-0.807,1.474-1.524,1.994-2.151c0.156-0.205,0.284-0.308,0.381-0.308c0.109,0,0.163,0.06,0.163,0.181
		c0,0.061-0.223,0.337-0.67,0.833c-1.835,2.05-3.333,3.508-4.492,4.376c-1.159,0.868-2.203,1.302-3.133,1.302
		c-0.845,0-1.494-0.376-1.947-1.13c-0.453-0.753-0.678-1.831-0.678-3.229c0-2.219,0.513-4.637,1.54-7.253
		c1.341-3.425,2.682-5.939,4.022-7.543c0.616-0.736,1.172-1.103,1.667-1.103c0.229,0,0.42,0.094,0.57,0.281
		c0.151,0.187,0.227,0.443,0.227,0.768c0,1.351-1.052,3.704-3.156,7.056c-0.532,0.844-1.106,1.682-1.723,2.514
		c-0.52,0.7-0.822,1.104-0.907,1.212l-0.726,0.922C119.201,22.595,119.098,22.727,118.917,22.968z M119.025,22.245
		c0.447-0.506,0.953-1.156,1.521-1.952c0.519-0.724,1.028-1.474,1.528-2.252c0.5-0.778,0.929-1.492,1.285-2.143
		c0.355-0.651,0.643-1.224,0.86-1.719c0.651-1.41,0.977-2.417,0.977-3.02c0-0.205-0.048-0.371-0.145-0.497
		c-0.096-0.127-0.229-0.19-0.397-0.19c-0.423,0-0.984,0.524-1.683,1.573c-0.7,1.049-1.394,2.387-2.081,4.015
		c-0.266,0.675-0.531,1.399-0.797,2.169c-0.265,0.771-0.476,1.453-0.633,2.044C119.303,20.865,119.159,21.522,119.025,22.245z"/>
	<path fill="#FFFFFF" stroke="#FFFFFF" stroke-width="0.6174" d="M132.979,22.076l-0.509,0.497c-0.351-0.219-0.635-0.33-0.854-0.33
		c-0.376,0-0.788,0.104-1.236,0.309c-0.448,0.207-0.887,0.485-1.317,0.836c-0.43,0.351-0.821,0.756-1.171,1.215
		c-0.751,1.002-1.127,1.878-1.127,2.625c0,0.87,0.369,1.304,1.108,1.304c0.702,0,1.658-0.537,2.868-1.611
		c0.81-0.725,1.609-1.545,2.396-2.463c0.047-0.193,0.071-0.283,0.071-0.271l0.246-1.083c0.276-1.219,0.767-2.668,1.47-4.349
		c0.703-1.678,1.452-3.194,2.245-4.547c0.69-1.177,1.42-2.171,2.189-2.983c0.768-0.81,1.358-1.216,1.771-1.216
		c0.276,0,0.416,0.181,0.416,0.541c0,0.614-0.233,1.47-0.701,2.57c-0.467,1.101-1.132,2.366-1.992,3.797
		c-0.435,0.749-1.045,1.709-1.829,2.881c-0.784,1.172-1.388,2.042-1.81,2.608l-0.742,1.023l-0.236,0.302
		c-0.168,1.062-0.253,1.872-0.253,2.427c0,1.763,0.453,2.643,1.359,2.643c1.257,0,3.247-1.497,5.966-4.49
		c0.073-0.084,0.139-0.16,0.199-0.226c0.06-0.067,0.109-0.117,0.146-0.154c0.155-0.156,0.26-0.272,0.307-0.345
		c0.146-0.15,0.242-0.227,0.29-0.227c0.109,0,0.164,0.052,0.164,0.154c0,0.072-0.055,0.164-0.164,0.272
		c-0.072,0.072-0.146,0.157-0.219,0.253c-1.041,1.195-2.204,2.36-3.487,3.494c-0.865,0.779-1.595,1.339-2.189,1.681
		c-0.594,0.343-1.149,0.513-1.666,0.513c-0.564,0-1.009-0.25-1.333-0.749c-0.325-0.499-0.486-1.217-0.486-2.155
		c0-0.253,0.024-0.62,0.072-1.101c0,0.024,0.012-0.109,0.036-0.397l-0.291,0.326c-1.29,1.419-2.352,2.421-3.184,3.005
		s-1.616,0.875-2.352,0.875c-0.458,0-0.811-0.135-1.058-0.406c-0.247-0.271-0.37-0.647-0.37-1.129c0-0.783,0.3-1.65,0.899-2.602
		c0.601-0.951,1.35-1.752,2.25-2.402c1.151-0.835,2.131-1.254,2.943-1.254C132.228,21.741,132.616,21.853,132.979,22.076z
		 M134.435,22.72c0.929-1.158,2.045-2.775,3.349-4.851c0.966-1.543,1.743-2.94,2.335-4.188c0.591-1.249,0.887-2.108,0.887-2.58
		c0-0.266-0.097-0.398-0.289-0.398c-0.241,0-0.604,0.266-1.086,0.795c-0.482,0.53-0.985,1.211-1.502,2.042
		c-0.483,0.749-0.987,1.695-1.512,2.843c-0.526,1.146-0.979,2.284-1.358,3.412C134.878,20.924,134.604,21.898,134.435,22.72z"/>
	<path fill="#FFFFFF" stroke="#FFFFFF" stroke-width="0.6174" d="M160.973,10.176l-0.271,0.307
		c-0.592,0.687-1.274,1.545-2.047,2.573c-0.773,1.029-1.474,2.019-2.102,2.97c-0.628,0.951-1.202,1.872-1.722,2.762l0.381-0.089
		l2.175-0.519c1.123-0.25,2.367-0.459,3.732-0.627c1.364-0.167,2.47-0.25,3.314-0.25l0.925-0.019c0.52,0,0.779,0.095,0.779,0.287
		c0,0.105-0.109,0.313-0.326,0.622l-0.055,0.089c-0.979-0.241-2.029-0.362-3.153-0.362c-0.604,0-1.187,0.028-1.748,0.083
		c-0.562,0.054-1.156,0.136-1.784,0.245c-0.629,0.108-1.287,0.235-1.976,0.38c-1.112,0.241-1.95,0.446-2.517,0.615
		c-0.569,0.942-1.19,2.232-1.868,3.874c-0.821,1.979-1.416,3.759-1.784,5.34c-0.369,1.58-0.554,3.179-0.554,4.796
		c0,0.965,0.122,1.852,0.363,2.662c-0.049,0.048-0.093,0.093-0.137,0.135c-0.042,0.043-0.08,0.083-0.117,0.118l-0.437,0.398
		l-0.527,0.488c-0.108,0.108-0.219,0.163-0.327,0.163c-0.267,0-0.399-0.386-0.399-1.157c0-2.173,0.414-4.677,1.242-7.513
		c0.829-2.835,1.915-5.448,3.256-7.837l0.544-0.978c0.023-0.024,0.056-0.072,0.097-0.145c0.042-0.072,0.066-0.132,0.079-0.18
		c-1.944,0.521-3.973,1.265-6.085,2.233l-0.381,0.181l0.09-0.505l0.309-0.126c0.883-0.385,1.904-0.783,3.066-1.193
		c1.183-0.409,1.907-0.65,2.174-0.723l0.798-0.235c0.035,0,0.132-0.03,0.289-0.09c0.108-0.18,0.181-0.3,0.218-0.36l0.616-0.994
		c0.145-0.241,0.482-0.759,1.014-1.555c0.17-0.266,0.31-0.479,0.418-0.637c0.107-0.158,0.223-0.327,0.344-0.508
		c0.217-0.329,0.386-0.577,0.508-0.747l1.467-2.074c0.544-0.764,0.942-1.285,1.197-1.565c0.252-0.278,0.476-0.418,0.669-0.418
		C160.78,10.086,160.864,10.116,160.973,10.176z M169.779,10.791l-0.015-0.343c1.146-0.29,1.719-0.694,1.719-1.212
		c0-0.386-0.248-0.681-0.744-0.887c-0.495-0.205-1.19-0.307-2.083-0.307c-2.246,0-5.037,0.543-8.371,1.628
		c-1.775,0.579-3.533,1.261-5.272,2.044c-0.728,0.338-1.309,0.651-1.745,0.941c0.037-0.35,0.143-0.591,0.319-0.724
		c0.174-0.132,0.789-0.417,1.843-0.851c5.499-2.308,10.131-3.463,13.895-3.463c0.904,0,1.619,0.122,2.144,0.363
		c0.524,0.243,0.788,0.568,0.788,0.979c0,0.375-0.229,0.732-0.684,1.071S170.521,10.622,169.779,10.791z"/>
	<path fill="#FFFFFF" stroke="#FFFFFF" stroke-width="0.6174" d="M167.5,24.387l-0.073-0.223c0.908-0.517,1.362-1.125,1.362-1.823
		c0-0.445-0.178-0.785-0.533-1.02c-0.354-0.234-0.852-0.352-1.487-0.352c-0.928,0-1.951,0.295-3.077,0.885
		c-1.125,0.59-2.072,1.324-2.842,2.204c-0.542,0.614-0.975,1.234-1.299,1.859c-0.324,0.626-0.487,1.149-0.487,1.57
		c0,0.41,0.129,0.738,0.387,0.984c0.259,0.248,0.585,0.371,0.981,0.371c0.731,0,1.604-0.454,2.617-1.363
		c1.014-0.909,1.934-2.073,2.762-3.493c0.182-0.093,0.339-0.14,0.473-0.14c0.132,0,0.278,0.089,0.437,0.265
		c-0.886,1.47-1.326,2.722-1.326,3.757c0,0.362,0.087,0.647,0.262,0.859c0.175,0.211,0.413,0.315,0.714,0.315
		c0.664,0,1.718-0.631,3.165-1.896c1.002-0.879,1.906-1.764,2.714-2.655l0.436-0.505c0.324-0.358,0.524-0.538,0.596-0.538
		c0.097,0,0.145,0.054,0.145,0.163c0,0.096-0.331,0.497-0.995,1.205c-0.965,1.05-1.875,1.964-2.731,2.744
		c-0.855,0.778-1.615,1.366-2.278,1.764c-0.664,0.397-1.207,0.597-1.629,0.597c-0.43,0-0.777-0.169-1.042-0.508
		s-0.397-0.774-0.397-1.307c0-0.362,0.064-0.9,0.194-1.615l-0.248,0.275c-1.958,2.079-3.59,3.119-4.898,3.119
		c-0.456,0-0.825-0.147-1.106-0.443c-0.282-0.295-0.425-0.697-0.425-1.204c0-0.543,0.166-1.145,0.495-1.808
		c0.329-0.664,0.785-1.33,1.366-2c0.582-0.669,1.22-1.256,1.915-1.763c0.902-0.673,1.862-1.208,2.879-1.604
		c1.017-0.397,1.915-0.596,2.696-0.596c0.782,0,1.381,0.132,1.796,0.397c0.416,0.266,0.624,0.656,0.624,1.174
		C169.639,23.027,168.926,23.81,167.5,24.387z"/>
	<path fill="#FFFFFF" stroke="#FFFFFF" stroke-width="0.6174" d="M174.11,22.941c0.185,0.048,0.339,0.072,0.462,0.072
		c0.602,0,1.272-0.18,2.01-0.542c0.534-0.266,0.854-0.398,0.961-0.398c0.13,0,0.233,0.037,0.311,0.109
		c0.078,0.072,0.116,0.17,0.116,0.291c0,0.145-0.055,0.271-0.16,0.38l-0.622,0.797c-1.254,1.534-1.881,2.828-1.881,3.883
		c0,0.467,0.147,0.854,0.444,1.159c0.294,0.306,0.665,0.458,1.111,0.458c0.556,0,1.158-0.204,1.81-0.612
		c0.65-0.408,1.471-1.084,2.459-2.031c0.784-0.743,1.526-1.503,2.227-2.283l0.524-0.593l0.162-0.162
		c0.048-0.06,0.096-0.09,0.145-0.09c0.108,0,0.163,0.048,0.163,0.144c0,0.061-0.121,0.228-0.361,0.504
		c-1.895,2.139-3.429,3.649-4.604,4.532c-1.177,0.883-2.233,1.325-3.175,1.325c-0.616,0-1.119-0.192-1.512-0.577
		c-0.394-0.384-0.589-0.883-0.589-1.496c0-1.201,0.696-2.654,2.091-4.359c0.123-0.17,0.186-0.274,0.186-0.31
		c0-0.073-0.049-0.11-0.146-0.11c-0.074,0-0.24,0.044-0.496,0.128c-0.404,0.135-0.747,0.202-1.027,0.202
		c-0.27,0-0.546-0.048-0.826-0.146c0,0.012-0.013,0.03-0.037,0.055l-0.312,0.362c-0.232,0.278-0.398,0.417-0.496,0.417
		s-0.147-0.042-0.147-0.127c0-0.036,0.024-0.084,0.072-0.146c0.037-0.035,0.068-0.068,0.1-0.098c0.031-0.03,0.051-0.058,0.063-0.082
		l0.271-0.344l0.217-0.253c-0.132-0.217-0.199-0.434-0.199-0.652c0-0.434,0.148-0.851,0.448-1.249
		c0.299-0.398,0.605-0.598,0.922-0.598c0.306,0,0.458,0.163,0.458,0.488c0,0.338-0.307,0.899-0.92,1.682
		C174.281,22.718,174.208,22.809,174.11,22.941z"/>
	<path fill="#FFFFFF" stroke="#FFFFFF" stroke-width="0.6174" d="M185.757,22.011l-0.181,0.29c-0.459,0.759-0.927,1.64-1.402,2.641
		c-0.477,1.001-0.848,1.88-1.113,2.64l0.146-0.106c1.062-0.879,2.224-1.727,3.488-2.545c2.016-1.294,3.361-1.942,4.034-1.942
		c0.204,0,0.368,0.07,0.495,0.209c0.126,0.139,0.19,0.322,0.19,0.551c0,0.266-0.151,0.899-0.448,1.899
		c-0.287,0.953-0.473,1.729-0.557,2.332l0.265-0.25l0.956-0.867c0.854-0.76,1.664-1.406,2.429-1.937
		c0.763-0.531,1.491-0.956,2.183-1.276s1.243-0.48,1.651-0.48c0.517,0,0.776,0.236,0.776,0.708c0,0.218-0.042,0.509-0.126,0.872
		c-0.379,1.553-0.569,2.485-0.569,2.799c0,0.326,0.082,0.59,0.244,0.794c0.163,0.206,0.377,0.307,0.642,0.307
		c0.386,0,0.872-0.189,1.457-0.568c0.584-0.38,1.349-1.002,2.288-1.869c0.831-0.771,1.623-1.565,2.37-2.384
		c0.252-0.292,0.41-0.438,0.47-0.438c0.108,0,0.163,0.055,0.163,0.164c0,0.072-0.157,0.278-0.47,0.619l-0.761,0.829
		c-0.266,0.288-0.775,0.784-1.527,1.487c-0.755,0.703-1.271,1.164-1.548,1.379c-1.266,0.985-2.291,1.478-3.075,1.478
		c-0.406,0-0.736-0.15-0.99-0.45c-0.254-0.3-0.382-0.678-0.382-1.135c0-0.516,0.112-1.212,0.338-2.089
		c0.186-0.722,0.279-1.149,0.279-1.282c0-0.349-0.156-0.524-0.47-0.524c-0.446,0-1.304,0.434-2.57,1.3
		c-1.048,0.71-1.987,1.481-2.82,2.312c-0.705,0.685-1.172,1.165-1.397,1.441c-0.264,0.285-0.454,0.427-0.573,0.427
		c-0.311,0-0.466-0.228-0.466-0.684c0-0.251,0.055-0.612,0.161-1.081c0.107-0.468,0.274-1.086,0.501-1.854l0.299-0.922
		c0.105-0.326,0.159-0.573,0.159-0.742c0-0.278-0.127-0.416-0.379-0.416c-0.348,0-1.193,0.434-2.539,1.3
		c-2.189,1.407-3.912,2.803-5.166,4.186c-0.157,0.178-0.283,0.268-0.38,0.268c-0.168,0-0.253-0.107-0.253-0.325
		c0-0.264,0.139-0.78,0.416-1.548c0.277-0.769,0.614-1.549,1.012-2.343c0.495-1.026,0.989-1.919,1.484-2.681
		C184.852,22.319,185.274,22.157,185.757,22.011z"/>
</g>
<path fill="none" stroke="#FFFFFF" stroke-width="0.6174" d="M43.455,14.371c-0.817,1.868-3.219,4.253-11.261,3.646
	c-6.447-0.486-9.568-1.875-13.183-3.196c-2.806-1.026-5.824-3.483-5.469-3.02c0.334,1.209,1.485,2.965,2.323,4.794
	c1.287,2.804-1.393,5.488-4.287,4.061c-1.325-0.654-1.181-2.084-1.528-2.223S8.857,20.001,6.86,19.47
	c-2.36-0.629-2.366-2.218-1.602-3.539c0.764-1.319,5.595-2.986,5.557-3.889c-0.018-0.417-3.265,0.695-4.515,0.972
	C5.05,13.292,2.601,13.479,2,11.548C1.504,9.95,2.365,8.833,3.198,8.486c0.834-0.348,2.129-0.264,2.268-0.543
	c0.139-0.277-1.111-1.181-0.486-2.64c0.625-1.458,2.479-2.41,4.143-1.278c1.381,0.939,1.653,2.671,1.931,4.06
	c0.278,1.39,0.345,2.369,0.873,1.456c0.529-0.913-0.138-2.64-0.138-3.334c0-0.694-0.216-3.157,1.729-3.711
	c1.945-0.556,3.342,0.933,3.48,2.114c0.139,1.182-0.23,1.605,0.047,1.812c0.278,0.209,1.464-0.985,2.801-0.215
	c1.526,0.881,1.141,4.116-0.804,4.742c-1.945,0.625-4.534,0.782-5.55,0.667"/>
</svg>
