<?xml version="1.0" encoding="utf-8"?>
<!-- Generator: Adobe Illustrator 16.0.0, SVG Export Plug-In . SVG Version: 6.00 Build 0)  -->
<!DOCTYPE svg PUBLIC "-//W3C//DTD SVG 1.1//EN" "http://www.w3.org/Graphics/SVG/1.1/DTD/svg11.dtd">
<svg version="1.1" id="Layer_1" xmlns="http://www.w3.org/2000/svg" xmlns:xlink="http://www.w3.org/1999/xlink" x="0px" y="0px"
	 width="270px" height="270px" viewBox="0 0 270 270" enable-background="new 0 0 270 270" xml:space="preserve">
<path fill="#239830" d="M94.452,169.74c-24.407,16.154-31.469,19.161-31.469,19.161l11.466,12.273c0,0,26.551-15.905,39.965-31.087
	c13.423-15.169,17.395-19.97,17.395-19.97s3.179,19.538,10.729,34.122c7.557,14.582,18.591,25.952,30.189,26.049
	c11.613,0.084,26.871-11.827,28.02-20.679c0.619-4.813-1.287-10.658-1.287-10.658s25.305-11.259,23.489-24.115
	c-1.822-12.873-7.118-20.471-19.05-24.214c-11.953-3.743-36.584-2.797-36.584-2.797s18.869-8.864,27.086-17.172
	c8.211-8.322,30.357-29.431,4.008-44.948c-12.246-7.208-24.019-2.226-24.019-2.226s-3.221-11.341-12.475-16.058
	c-9.246-4.718-23.963-3.021-27.671,15.125c-2.387,11.704-1.496,12.594-2.38,35.763c0,0-1.968-11.383-9.35-23.1
	c-7.375-11.731-16.907-19.648-24.61-19.134c-9.935,0.64-18.034,4.146-21.201,15.53c-2.399,8.641,0.717,13.512,0.717,13.512
	s-11.292-0.57-18.243,5.831c-6.958,6.4-13.645,30.112,1.983,39.715c15.627,9.615,57.631,13.429,57.631,13.429
	S106.782,161.571,94.452,169.74z"/>
</svg>
