<?xml version="1.0" encoding="utf-8"?>
<!-- Generator: Adobe Illustrator 16.0.0, SVG Export Plug-In . SVG Version: 6.00 Build 0)  -->
<!DOCTYPE svg PUBLIC "-//W3C//DTD SVG 1.1//EN" "http://www.w3.org/Graphics/SVG/1.1/DTD/svg11.dtd">
<svg version="1.1" id="Layer_1" xmlns="http://www.w3.org/2000/svg" xmlns:xlink="http://www.w3.org/1999/xlink" x="0px" y="0px"
	 width="270px" height="270px" viewBox="0 0 270 270" enable-background="new 0 0 270 270" xml:space="preserve">
<g>
	<g>
		<path fill="#FFF8B5" d="M134.063,2.923c-25.882,0.635-50.265,227.326,5.544,225.958C195.418,227.511,159.946,2.288,134.063,2.923z
			"/>
		<g>
			<g>
				<path fill="#DEBA2B" d="M139.289,228.881c11.319-0.278,19.664-6.424,25.592-16.485H149.12
					C146.954,222.597,143.762,228.771,139.289,228.881z"/>
				<path fill="#E9C32D" d="M128.528,212.396h-16.429c6.49,10.54,15.384,16.774,27.19,16.485
					C134.741,228.992,131.208,222.783,128.528,212.396z"/>
				<g>
					<path fill="#DEBA2B" d="M152.514,42.172c3.531,0,6.009-3.531,4.778-6.84c-0.578-1.554-1.163-3.065-1.753-4.531
						c-0.769-1.907-2.643-3.133-4.698-3.133h-2.739c-3.143,0-5.525,2.804-5.015,5.904c0.23,1.396,0.46,2.831,0.685,4.299
						c0.382,2.474,2.52,4.301,5.022,4.301H152.514z"/>
					<path fill="#DEBA2B" d="M166.672,148.708l-3.74,0.004c-5.556,0.006-10.069,4.569-10.055,10.126
						c0.003,1.259,0.003,2.51-0.003,3.752c-0.021,5.574,4.492,10.12,10.066,10.12h3.571c5.392,0,9.781-4.245,10.065-9.631
						c0.068-1.275,0.124-2.561,0.171-3.855C176.955,153.489,172.41,148.703,166.672,148.708z"/>
					<path fill="#DEBA2B" d="M156.13,78.231h2.798c5.339,0,9.24-4.991,8.021-10.188c-0.226-0.955-0.452-1.905-0.683-2.849
						c-0.903-3.702-4.215-6.302-8.023-6.302h-2.408c-4.911,0-8.723,4.26-8.199,9.143c0.099,0.924,0.196,1.853,0.293,2.787
						C148.364,75.026,151.904,78.231,156.13,78.231z"/>
					<path fill="#DEBA2B" d="M160.447,100.188c-5.356,0-9.606,4.514-9.271,9.86c0.087,1.39,0.17,2.781,0.251,4.173
						c0.286,4.906,4.361,8.731,9.275,8.731h4.705c5.56,0,9.88-4.85,9.251-10.374c-0.16-1.391-0.325-2.783-0.499-4.172
						c-0.585-4.681-4.521-8.218-9.238-8.218H160.447z"/>
					<path fill="#DEBA2B" d="M149.12,212.396h15.761c2.952-5.011,5.301-10.996,7.109-17.728h-20.395
						C151.001,201.402,150.185,207.385,149.12,212.396z"/>
				</g>
				<g>
					<path fill="#DEBA2B" d="M156.024,58.892c4.36,0,7.533-4.191,6.296-8.372c-0.372-1.257-0.75-2.498-1.131-3.721
						c-0.857-2.75-3.387-4.628-6.267-4.628h-2.989c-3.965,0-7.011,3.483-6.492,7.414c0.154,1.176,0.309,2.367,0.461,3.571
						c0.414,3.271,3.199,5.735,6.498,5.735H156.024z"/>
					<path fill="#DEBA2B" d="M159.112,100.188h3.02c5.75,0,10.158-5.175,9.169-10.84c-0.205-1.172-0.415-2.339-0.63-3.503
						c-0.813-4.415-4.664-7.615-9.151-7.615h-2.69c-5.44,0-9.717,4.64-9.257,10.061c0.095,1.121,0.188,2.245,0.28,3.373
						C150.244,96.481,154.28,100.188,159.112,100.188z"/>
					<path fill="#DEBA2B" d="M162.406,122.953c-5.713,0-10.271,4.752-10.059,10.46c0.069,1.854,0.132,3.701,0.188,5.54
						c0.165,5.445,4.622,9.765,10.069,9.759l3.99-0.004c5.744-0.005,10.302-4.699,10.071-10.439
						c-0.077-1.93-0.174-3.869-0.287-5.814c-0.311-5.33-4.732-9.501-10.07-9.501H162.406z"/>
					<path fill="#DEBA2B" d="M164.299,172.71h-1.83c-5.359,0-9.807,4.201-10.057,9.557c-0.028,0.612-0.059,1.222-0.089,1.826
						c-0.297,5.76,4.284,10.575,10.053,10.575h1.581c4.843,0,8.991-3.438,9.907-8.194c0.116-0.602,0.228-1.209,0.338-1.819
						C175.31,178.441,170.609,172.71,164.299,172.71z"/>
				</g>
				<path fill="#E9C32D" d="M125.229,194.668h-20.812c2.047,6.734,4.594,12.714,7.681,17.728h16.429
					C127.235,207.383,126.14,201.402,125.229,194.668z"/>
				<g>
					<path fill="#E9C32D" d="M120.945,27.667h-2.542c-2.136,0-4.067,1.325-4.777,3.34c-0.516,1.467-1.024,2.979-1.523,4.534
						c-1.052,3.271,1.415,6.63,4.851,6.63h3.51c2.596,0,4.781-1.966,5.054-4.548c0.156-1.468,0.314-2.901,0.476-4.297
						C126.344,30.304,123.988,27.667,120.945,27.667z"/>
					<path fill="#E9C32D" d="M114.892,58.892h-2.24c-3.948,0-7.344,2.786-8.104,6.659c-0.192,0.983-0.382,1.972-0.567,2.966
						c-0.945,5.054,2.978,9.713,8.118,9.713h2.632c4.38,0,7.992-3.434,8.234-7.806c0.052-0.936,0.105-1.866,0.16-2.79
						C123.402,62.89,119.645,58.892,114.892,58.892z"/>
					<path fill="#E9C32D" d="M107.641,122.953h4.622c5.088,0,9.237-4.092,9.29-9.18c0.014-1.393,0.031-2.784,0.051-4.174
						c0.076-5.176-4.111-9.411-9.289-9.411h-4.373c-4.874,0-8.894,3.766-9.28,8.625c-0.111,1.39-0.213,2.781-0.309,4.173
						C97.984,118.371,102.243,122.953,107.641,122.953z"/>
					<path fill="#E9C32D" d="M112.161,148.761l-3.797,0.004c-6.022,0.006-10.508,4.924-10.035,10.927
						c0.106,1.346,0.223,2.683,0.35,4.008c0.493,5.129,4.866,9.011,10.019,9.011h3.651c5.776,0,10.346-4.836,10.053-10.604
						c-0.062-1.226-0.12-2.459-0.176-3.701C121.985,153.017,117.555,148.756,112.161,148.761z"/>
				</g>
				<g>
					<path fill="#E9C32D" d="M117.895,42.172h-2.795c-2.988,0-5.588,2.015-6.347,4.904c-0.321,1.224-0.638,2.466-0.949,3.723
						c-1.017,4.115,2.132,8.093,6.371,8.093h3.429c3.418,0,6.263-2.643,6.529-6.051c0.094-1.205,0.19-2.396,0.29-3.573
						C124.741,45.444,121.733,42.172,117.895,42.172z"/>
					<path fill="#E9C32D" d="M109.874,100.188h2.886c5.005,0,9.118-3.971,9.285-8.973c0.038-1.127,0.078-2.251,0.119-3.371
						c0.194-5.259-4.021-9.614-9.285-9.614h-2.552c-4.644,0-8.583,3.42-9.218,8.021c-0.16,1.163-0.315,2.331-0.466,3.502
						C99.932,95.293,104.288,100.188,109.874,100.188z"/>
					<path fill="#E9C32D" d="M111.57,148.761c5.629-0.005,10.151-4.614,10.055-10.243c-0.032-1.856-0.058-3.72-0.077-5.592
						c-0.057-5.481-4.581-9.973-10.063-9.973h-3.875c-5.507,0-10.012,4.429-10.086,9.937c-0.027,1.964-0.037,3.921-0.028,5.869
						c0.022,5.544,4.553,10.012,10.097,10.007L111.57,148.761z"/>
					<path fill="#E9C32D" d="M113.781,172.71h-2.029c-6.458,0-11.21,5.991-9.832,12.299c0.134,0.609,0.27,1.215,0.409,1.815
						c1.066,4.586,5.124,7.844,9.832,7.844h1.778c5.955,0,10.597-5.121,10.017-11.049c-0.056-0.573-0.11-1.151-0.165-1.732
						C123.309,176.698,118.992,172.71,113.781,172.71z"/>
				</g>
				<path fill="#FFDD39" d="M149.12,212.396h-20.592c2.68,10.388,6.213,16.597,10.761,16.485
					C143.762,228.771,146.954,222.597,149.12,212.396z"/>
				<g>
					<path fill="#FFDD39" d="M131.167,42.172H138c3.387,0,5.978-3.042,5.445-6.386c-0.191-1.203-0.384-2.38-0.578-3.531
						c-0.447-2.657-2.742-4.587-5.437-4.587h-5.867c-2.795,0-5.148,2.073-5.476,4.849c-0.136,1.152-0.271,2.33-0.401,3.531
						C125.33,39.307,127.888,42.172,131.167,42.172z"/>
					<path fill="#FFDD39" d="M128.528,212.396h20.592c1.064-5.011,1.881-10.993,2.476-17.728h-26.366
						C126.141,201.402,127.235,207.383,128.528,212.396z"/>
					<path fill="#FFDD39" d="M130.279,78.231h10.288c4.345,0,7.741-3.771,7.289-8.093c-0.166-1.591-0.335-3.168-0.507-4.729
						c-0.41-3.715-3.547-6.517-7.285-6.517h-9.513c-3.873,0-7.079,3.003-7.315,6.869c-0.095,1.561-0.187,3.138-0.275,4.729
						C122.729,74.688,126.075,78.231,130.279,78.231z"/>
					<path fill="#FFDD39" d="M129.695,122.953h13.598c4.697,0,8.411-3.958,8.139-8.647c-0.125-2.156-0.257-4.311-0.396-6.462
						c-0.278-4.299-3.826-7.655-8.136-7.655h-13.123c-4.461,0-8.08,3.587-8.151,8.048c-0.034,2.152-0.062,4.307-0.082,6.463
						C121.501,119.241,125.154,122.953,129.695,122.953z"/>
					<path fill="#FFDD39" d="M144.705,148.729l-14.388,0.014c-4.639,0.005-8.339,3.889-8.141,8.523
						c0.113,2.619,0.239,5.205,0.381,7.749c0.241,4.324,3.814,7.694,8.145,7.694h14.003c4.481,0,8.124-3.601,8.156-8.082
						c0.021-2.55,0.021-5.142,0.006-7.767C152.844,152.37,149.196,148.726,144.705,148.729z"/>
				</g>
				<g>
					<path fill="#FFDD39" d="M130.466,58.892h9.021c3.791,0,6.725-3.342,6.242-7.102c-0.182-1.414-0.365-2.806-0.551-4.178
						c-0.423-3.123-3.086-5.44-6.238-5.44h-8.133c-3.267,0-5.991,2.486-6.271,5.741c-0.118,1.372-0.233,2.765-0.345,4.178
						C123.901,55.75,126.795,58.892,130.466,58.892z"/>
					<path fill="#FFDD39" d="M144.312,172.71h-12.43c-4.78,0-8.56,4.104-8.121,8.862c0.185,2.001,0.381,3.96,0.589,5.872
						c0.45,4.124,3.954,7.224,8.103,7.224h11.565c4.296,0,7.877-3.321,8.138-7.608c0.115-1.912,0.217-3.868,0.304-5.867
						C152.662,176.569,148.942,172.71,144.312,172.71z"/>
					<path fill="#FFDD39" d="M130.176,100.188h11.525c4.771,0,8.514-4.086,8.125-8.84c-0.154-1.894-0.314-3.779-0.478-5.651
						c-0.37-4.221-3.886-7.466-8.122-7.466h-10.849c-4.388,0-7.977,3.471-8.147,7.856c-0.072,1.875-0.14,3.76-0.202,5.655
						C121.876,96.355,125.562,100.188,130.176,100.188z"/>
					<path fill="#FFDD39" d="M129.828,148.744l14.604-0.015c4.596-0.004,8.277-3.796,8.145-8.39
						c-0.091-3.157-0.201-6.342-0.329-9.543c-0.177-4.377-3.769-7.844-8.149-7.844h-14.411c-4.534,0-8.193,3.705-8.154,8.238
						c0.026,3.206,0.071,6.395,0.133,9.556C121.754,145.192,125.381,148.748,129.828,148.744z"/>
				</g>
			</g>
		</g>
	</g>
	<path fill="#308037" d="M150.573,230.934l-14.078-10.296l-14.079,10.296l1.244,21.978c0,0,2.976,3.618,3.665,7.946
		c0.586,3.68,3.631,6.507,7.323,7.008c0.627,0.085,1.249,0.135,1.847,0.135c0.041,0,0.083,0,0.126-0.001
		c3.999-0.046,7.453-3.118,8.059-7.071c0.668-4.358,3.676-8.017,3.676-8.017L150.573,230.934z"/>
	<g>
		<path fill="#609E3E" d="M148.355,252.911c0,0-14.916-9.368-14.916-35.752c0-26.386,26.266-122.303,91.554-97.062
			c-29.583,8.319-42.336,14.647-42.336,57.414S179.217,237.984,148.355,252.911z"/>
		<path fill="#72AA43" d="M123.66,252.911c0,0,17.149-9.368,17.149-35.752c0-26.386-26.266-122.303-91.555-97.062
			c29.584,8.319,42.336,14.647,42.336,57.414S100.567,240.603,123.66,252.911z"/>
	</g>
</g>
</svg>
