<?xml version="1.0" encoding="utf-8"?>
<!-- Generator: Adobe Illustrator 16.0.0, SVG Export Plug-In . SVG Version: 6.00 Build 0)  -->
<!DOCTYPE svg PUBLIC "-//W3C//DTD SVG 1.1//EN" "http://www.w3.org/Graphics/SVG/1.1/DTD/svg11.dtd">
<svg version="1.1" id="Layer_1" xmlns="http://www.w3.org/2000/svg" xmlns:xlink="http://www.w3.org/1999/xlink" x="0px" y="0px"
	 width="270px" height="270px" viewBox="0 0 270 270" enable-background="new 0 0 270 270" xml:space="preserve">
<g>
	<g>
		<g>
			<path fill="#60266C" d="M128.849,248.601c-34.055,10.493-73.305,7.088-93.286-18.953c-0.829-1.08-1.62-2.188-2.371-3.324
				c-16.466-24.913-6.463-58.269,16.375-75.317c19.704-14.708,45.12-19.364,68.123-26.498c14.964-4.641,46.532-13.186,62.03-60.79
				c3.708-11.385,16.605-28.229,38.751-21.077c11.491,3.711,22.698,13.454,21.75,34.558
				C236.083,169.238,190.063,229.737,128.849,248.601z"/>
		</g>
		<g>
			<path fill="#572262" d="M218.471,42.642c-3.342-1.08-6.447-1.558-9.368-1.644c9.151,5.058,18.582,17.192,14.623,46.247
				c-8.303,60.908-43.176,123.714-112.091,130.355c-45.587,4.395-73.204-13.581-83.159-37.885
				c-5.434,15.196-4.747,32.29,4.716,46.608c0.751,1.136,1.542,2.244,2.371,3.324c19.981,26.041,59.232,29.446,93.286,18.953
				c61.215-18.863,107.234-79.361,111.372-171.401C241.169,56.096,229.962,46.353,218.471,42.642z"/>
		</g>
		<g>
			<path fill="#8F3894" d="M74.273,155.328c-10.744,4.354-21.211,16.165-12.696,29.891c10.867,17.516,39.584,15.221,55.84,8.516
				c24.664-10.177,38.915-26.523,45.975-43.111c4.805-11.292,3.796-20.756-1.938-23.249c-9.053-3.931-18.658,3.561-26.017,8.026
				C111.498,149.932,89.632,149.101,74.273,155.328z"/>
		</g>
	</g>
	<path fill="#37B34A" d="M213.945,32.444c-16.051,0-23.386,6.228-28.921,15.498c-4.604,7.712-8.304,9.134-8.304,9.134
		s7.474,3.598,16.054-1.661s8.58-5.259,8.58-5.259s-2.215,3.598,1.104,11.625c3.322,8.026,1.385,13.562,1.385,13.562
		s22.531-6.727,16.662-22.046c0,0,3.584,4.315,10.46,5.716c6.879,1.4,11.625,8.303,11.625,8.303s0.261-9.929-4.567-18.959
		C233.259,39.447,226.193,32.444,213.945,32.444z"/>
	<path fill="#31A444" d="M238.023,48.359c-4.765-8.913-11.83-15.915-24.078-15.915c0.971-11.832-5.466-20.341-5.466-20.341
		c-5.952-1.87-9.201,5.396-9.201,5.396c8.509,5.189,9.201,15.219,9.201,15.219c2.562,2.864,4.649,6.364,5.328,10.521
		c1.986,12.17-4.15,18.542-4.15,18.542s-7.196-3.598-8.303-11.625l-0.695,3.332c-0.062,1.898,0.276,4.609,1.802,8.293
		c3.32,8.026,1.383,13.562,1.383,13.562s22.531-6.727,16.662-22.046c0,0,3.584,4.315,10.462,5.716
		c6.877,1.4,11.623,8.303,11.623,8.303S242.852,57.388,238.023,48.359z"/>
</g>
</svg>
