<?xml version="1.0" encoding="utf-8"?>
<!-- Generator: Adobe Illustrator 16.0.0, SVG Export Plug-In . SVG Version: 6.00 Build 0)  -->
<!DOCTYPE svg PUBLIC "-//W3C//DTD SVG 1.1//EN" "http://www.w3.org/Graphics/SVG/1.1/DTD/svg11.dtd">
<svg version="1.1" id="Layer_1" xmlns="http://www.w3.org/2000/svg" xmlns:xlink="http://www.w3.org/1999/xlink" x="0px" y="0px"
	 width="270px" height="270px" viewBox="0 0 270 270" enable-background="new 0 0 270 270" xml:space="preserve">
<g>
	<g>
		<g>
			<path fill="#528A34" d="M240.902,56.823c-13.188,1.458-55.156,44.019-106.959,82.943c-39.587,29.746-69.458,43.946-89.323,39.377
				c-20.039-4.61-31.168-18.918-38.018-32.653c0,0,20.108-4.578,79.223-45.15c20.243-13.892,62.945-49.078,74.662-58.159
				C208.1,6.29,240.902,56.823,240.902,56.823z"/>
		</g>
		<path fill="#4C8130" d="M163.44,41.038c12.332-2.103,22.33-1.258,30.171,0.785c11.662,3.04,14.865,18.1,5.461,25.638
			c-7.744,6.211-18.12,14.812-31.074,26.16c-68.811,60.272-107.049,78.996-133.331,82.149c3.052,1.395,6.354,2.545,9.953,3.372
			c19.865,4.569,49.736-9.631,89.323-39.377c51.803-38.924,93.771-81.485,106.959-82.943
			C240.902,56.823,209.444,8.433,163.44,41.038z"/>
		
			<ellipse transform="matrix(0.8209 -0.5711 0.5711 0.8209 -75.874 59.2102)" fill="#64A13E" cx="56.449" cy="150.554" rx="15.961" ry="15.009"/>
		
			<ellipse transform="matrix(0.8208 -0.5712 0.5712 0.8208 -59.3459 76.5664)" fill="#64A13E" cx="92.375" cy="132.881" rx="15.962" ry="15.007"/>
		
			<ellipse transform="matrix(0.8208 -0.5712 0.5712 0.8208 -39.863 91.0003)" fill="#64A13E" cx="125.123" cy="109.042" rx="15.961" ry="15.007"/>
		<path fill="#64A13E" d="M170.858,73.345c4.734,6.804,2.707,16.401-4.528,21.437c-7.237,5.034-16.942,3.601-21.678-3.204
			c-4.731-6.803-2.704-16.4,4.534-21.436C156.421,65.108,166.126,66.542,170.858,73.345z"/>
		
			<ellipse transform="matrix(0.8208 -0.5711 0.5711 0.8208 1.7975 119.3644)" fill="#64A13E" cx="191.17" cy="56.817" rx="15.962" ry="15.008"/>
		
			<ellipse transform="matrix(0.8209 -0.5711 0.5711 0.8209 -76.3328 56.3185)" fill="#68BC45" cx="51.616" cy="149.848" rx="6.935" ry="6.521"/>
		
			<ellipse transform="matrix(0.8208 -0.5712 0.5712 0.8208 -59.0667 73.7299)" fill="#68BC45" cx="87.982" cy="131.009" rx="6.935" ry="6.522"/>
		
			<ellipse transform="matrix(0.8209 -0.5711 0.5711 0.8209 -40.7303 87.9142)" fill="#68BC45" cx="119.78" cy="108.885" rx="6.935" ry="6.521"/>
		
			<ellipse transform="matrix(0.8209 -0.5711 0.5711 0.8209 -19.9316 101.4955)" fill="#68BC45" cx="151.823" cy="82.52" rx="6.935" ry="6.522"/>
		
			<ellipse transform="matrix(0.8209 -0.5711 0.5711 0.8209 1.5213 116.6173)" fill="#68BC45" cx="186.662" cy="55.884" rx="6.936" ry="6.521"/>
	</g>
	<g>
		<g>
			<path fill="#5D983A" d="M266.725,58.962c-11.706,6.247-34.889,61.34-68.555,116.706c-25.727,42.309-48.198,66.578-68.341,69.705
				c-20.32,3.151-35.963-6.006-47.417-16.221c0,0,16.974-11.71,56.817-71.317c13.645-20.411,40.245-68.928,47.76-81.708
				C217.515,24.206,266.725,58.962,266.725,58.962z"/>
		</g>
		<path fill="#578F37" d="M188.936,73.042c10.669-6.529,20.27-9.453,28.307-10.464c11.959-1.503,20.521,11.293,14.585,21.783
			c-4.891,8.639-11.333,20.477-19.154,35.82c-41.54,81.5-70.103,113.073-93.34,125.75c3.354,0.163,6.846,0.007,10.496-0.559
			c20.143-3.127,42.615-27.396,68.341-69.705c33.666-55.366,56.849-110.458,68.555-116.706
			C266.725,58.962,219.561,25.697,188.936,73.042z"/>
		
			<ellipse transform="matrix(0.5504 -0.8349 0.8349 0.5504 -120.4918 205.1269)" fill="#6DAF44" cx="130.208" cy="214.436" rx="15.963" ry="15.009"/>
		
			<ellipse transform="matrix(0.5504 -0.8349 0.8349 0.5504 -83.6077 214.1323)" fill="#6DAF44" cx="157.013" cy="184.694" rx="15.962" ry="15.011"/>
		
			<ellipse transform="matrix(0.5504 -0.8349 0.8349 0.5504 -45.2883 216.7139)" fill="#6DAF44" cx="178.58" cy="150.408" rx="15.962" ry="15.008"/>
		
			<ellipse transform="matrix(0.5504 -0.8349 0.8349 0.5504 -5.3786 217.2483)" fill="#6DAF44" cx="199.024" cy="113.618" rx="15.961" ry="15.008"/>
		
			<ellipse transform="matrix(0.5503 -0.8349 0.8349 0.5503 34.5367 218.9442)" fill="#6DAF44" cx="220.538" cy="77.408" rx="15.961" ry="15.008"/>
		
			<ellipse transform="matrix(0.5502 -0.835 0.835 0.5502 -123.5791 201.7132)" fill="#87C55B" cx="125.457" cy="215.573" rx="6.936" ry="6.522"/>
		
			<ellipse transform="matrix(0.5503 -0.835 0.835 0.5503 -85.6625 210.1176)" fill="#87C55B" cx="152.24" cy="184.587" rx="6.936" ry="6.521"/>
		
			<ellipse transform="matrix(0.5504 -0.8349 0.8349 0.5504 -49.0741 213.3672)" fill="#87C55B" cx="173.56" cy="152.246" rx="6.935" ry="6.521"/>
		
			<ellipse transform="matrix(0.5504 -0.8349 0.8349 0.5504 -9.7309 213.6755)" fill="#87C55B" cx="193.537" cy="115.873" rx="6.936" ry="6.521"/>
		
			<ellipse transform="matrix(0.5504 -0.8349 0.8349 0.5504 31.8181 215.5115)" fill="#87C55B" cx="216.006" cy="78.213" rx="6.935" ry="6.521"/>
	</g>
</g>
</svg>
