<?xml version="1.0" encoding="utf-8"?>
<!-- Generator: Adobe Illustrator 16.0.0, SVG Export Plug-In . SVG Version: 6.00 Build 0)  -->
<!DOCTYPE svg PUBLIC "-//W3C//DTD SVG 1.1//EN" "http://www.w3.org/Graphics/SVG/1.1/DTD/svg11.dtd">
<svg version="1.1" id="Layer_1" xmlns="http://www.w3.org/2000/svg" xmlns:xlink="http://www.w3.org/1999/xlink" x="0px" y="0px"
	 width="270px" height="270px" viewBox="0 0 270 270" enable-background="new 0 0 270 270" xml:space="preserve">
<g>
	<g>
		<g>
			<path fill="#00873E" d="M145.385,68.605c6.521-1.649,12.806-9.607,7.367-17.584c6.132-1.167,11.573-12.464,2.292-17.641
				c6.224-0.913,9.96-15.112-1.147-17.313c0,0,3.143-9.001-4.403-13.489c-8.98-5.341-14.925,4.59-14.925,4.59
				c-8.188-8.356-22.355-0.798-18.625,11.829c-15.449,0.418-15.072,19.227-6.677,21.056c-14.105,9.125-5.896,20.397,0.961,22.103
				c-11.703,10.201,2.044,16.291,6.552,20.958c1.376,1.426,2.687,2.746,5.13,9.142c3.083,8.067,10.472,6.261,12.053-1.422
				C136.188,80.022,150.268,79.145,145.385,68.605z"/>
			<path fill="#007B38" d="M139.114,22.124c0,0-16.22,29.214-14.705,120.942c0.104,6.256,1.102,11.556,1.689,16.084
				c0.285,2.194,3.538,1.921,3.437-0.289c-0.556-12.171-0.554-55.15,0.883-71.883C134.129,43.711,139.114,22.124,139.114,22.124z"/>
		</g>
		<g>
			<path fill="#31A444" d="M178.988,111.071c6.461,1.873,15.904-1.816,15.245-11.45c5.882,2.093,16.285-4.904,10.895-14.062
				c5.83,2.358,16.232-8.005,7.763-15.519c0,0,7.259-6.178,3.017-13.865c-5.047-9.148-15.197-3.584-15.197-3.584
				c-2.84-11.348-18.884-11.988-22.05,0.791c-13.539-7.447-22.724,8.971-16.403,14.795c-16.782,0.742-15.397,14.617-10.345,19.556
				c-15.252,2.886-6.471,15.09-4.939,21.396c0.468,1.924,0.932,3.726-0.195,10.479c-1.417,8.518,5.873,10.697,11.119,4.867
				C165.281,116.271,177.871,122.632,178.988,111.071z"/>
			<path fill="#00873E" d="M196.791,66.058c0,0-35.914,28.925-59.85,79.053c-2.757,5.777-4.999,10.767-6.825,15.065
				c-0.882,2.083,2.13,3.525,3.184,1.523c5.802-11.027,9.465-19.274,18.376-33.958C174.714,89.786,196.791,66.058,196.791,66.058z"
				/>
		</g>
		<g>
			<path fill="#31A444" d="M89.79,109.472c-5.992,0.583-13.695-4.217-11.528-12.583c-5.519,0.874-13.52-6.997-7.267-14.167
				c-5.52,1.114-12.963-9.715-4.274-14.931c0,0-5.37-6.632-0.371-12.695c5.949-7.216,13.96-0.65,13.96-0.65
				c4.369-9.516,18.588-7.437,19.268,4.327c13.14-4.321,18.514,11.635,11.997,15.717c14.641,3.418,11.137,15.397,5.878,18.909
				c12.944,5.051,3.208,14.342,0.822,19.636c-0.729,1.617-1.434,3.125-1.555,9.251c-0.156,7.73-6.928,8.445-10.584,2.451
				C100.992,116.306,88.867,119.828,89.79,109.472z"/>
			<path fill="#00873E" d="M81.539,66.939c0,0,26.833,31.363,39.636,79.405c1.475,5.536,2.626,10.297,3.521,14.378
				c0.435,1.979-2.453,2.751-3.05,0.815c-3.287-10.655-5.153-18.515-10.574-32.9C97.055,91.451,81.539,66.939,81.539,66.939z"/>
		</g>
	</g>
	<g>
		<g>
			<path fill="#DD1F3B" d="M77.652,193.492c-1.026,17.289,7.22,27.335,15.311,35.112c8.17,7.854,21.579,11.63,26.451,19.567
				c3.956,6.442,0.616,16.965-7.138,20.03c0,0,6.797,0,12.443-5.458c4.086-3.951,6.186-6.716,8.99-11.793
				c3.768-6.823,8.937-9.581,13.43-12.534c11.724-7.701,14.891-7.529,22.935-16.43c12.226-13.526,21.221-65.034-43.826-65.034
				C92.962,156.953,78.747,175.038,77.652,193.492z"/>
		</g>
		<circle fill="#E25A56" cx="108.179" cy="188.379" r="10.891"/>
		<g>
			<path fill="#C91A35" d="M129.265,157.028c42.133,10.734,33.278,53.322,22.323,66.328c-16.459,19.548-35.977,18.377-40.346,17.329
				c3.422,2.207,6.378,4.564,8.171,7.486c3.956,6.442,0.616,16.965-7.138,20.03c0,0,6.797,0,12.443-5.458
				c4.086-3.951,6.186-6.716,8.99-11.793c3.768-6.824,8.937-9.581,13.43-12.534c11.724-7.701,14.891-7.529,22.935-16.43
				C182.103,208.678,190.95,158.631,129.265,157.028z"/>
		</g>
	</g>
</g>
</svg>
